<?xml version="1.0" standalone="no"?>
<!DOCTYPE svg PUBLIC "-//W3C//DTD SVG 1.1//EN" "http://www.w3.org/Graphics/SVG/1.1/DTD/svg11.dtd" >
<svg xmlns="http://www.w3.org/2000/svg" xmlns:xlink="http://www.w3.org/1999/xlink" version="1.1">
<metadata>
Created by FontForge 20170731 at Tue Jun 12 23:11:14 2018
 By Aleksey,,,
</metadata>
<defs>
<font id="MarkerBoldRegular" horiz-adv-x="1312" >
  <font-face 
    font-family="Marker Bold"
    font-weight="400"
    font-stretch="normal"
    units-per-em="2048"
    panose-1="0 0 0 0 0 0 0 0 0 0"
    ascent="1638"
    descent="-410"
    x-height="1431"
    cap-height="1434"
    bbox="0 -96.3333 2149.08 1552.01"
    underline-thickness="102"
    underline-position="-816"
    unicode-range="U+000A-25FC"
  />
<missing-glyph horiz-adv-x="1024" 
 />
    <glyph glyph-name=".notdef" horiz-adv-x="1024" 
 />
    <glyph glyph-name=".notdef" horiz-adv-x="1024" 
 />
    <glyph glyph-name="glyph1" horiz-adv-x="0" 
 />
    <glyph glyph-name="glyph2" horiz-adv-x="682" 
 />
    <glyph glyph-name="uni000A" unicode="&#xa;" horiz-adv-x="0" 
 />
    <glyph glyph-name="uni000D" unicode="&#xd;" horiz-adv-x="0" 
 />
    <glyph glyph-name="space" unicode=" " horiz-adv-x="757" 
 />
    <glyph glyph-name="exclam" unicode="!" horiz-adv-x="813" 
d="M206.5 147.5q7.5 37.5 34 65.5t64 50t79.5 24t79 -13q32 -16 53 -43t26 -60q5 -28 -3 -54q-13 -45 -54 -76.5t-93 -38.5t-101.5 14t-72.5 61q-19 33 -11.5 70.5zM261 600q0 14 2 29t4.5 26.5t8.5 29.5t9.5 26t12 28.5t10.5 26.5q96 229 119 482q1 9 3 40t3.5 50t7 49.5
t13 48t22 35.5t34 22.5t48 -2t64.5 -27.5q21 -13 39 -32q40 -46 47 -114q5 -57 -23 -168q-20 -81 -60 -241.5t-60 -240.5q-25 -99 -56 -138q-25 -32 -64.5 -49.5t-78.5 -10.5q-46 8 -74.5 46.5t-30.5 83.5z" />
    <glyph glyph-name="quotesingle" unicode="'" horiz-adv-x="468" 
d="M108 1372q-16 88 18 133.5t110 46.5q118 1 129 -121q5 -28 2.5 -81.5t-8 -106.5t-29 -94.5t-59.5 -46.5q-33 -5 -71 51t-61.5 118t-30.5 101z" />
    <glyph glyph-name="comma" unicode="," horiz-adv-x="491" 
d="M123 101q61 115 104 156q57 52 109 29q31 -14 44 -69.5t9 -112.5t-17 -90q-33 -83 -87.5 -103.5t-117.5 20.5q-100 63 -44 170z" />
    <glyph glyph-name="hyphen" unicode="-" 
d="M105 731q11 50 67 74q13 6 30.5 9.5t28 4.5t33.5 2.5t29 1.5q45 3 130 7q133 4 266 0q218 -7 312 -16q2 0 26.5 -2t31 -3t28.5 -4t30.5 -6.5t26 -10.5t26.5 -15.5t18.5 -21.5t15.5 -28q12 -30 4 -59q-16 -61 -113 -81q-51 -10 -155 -10q-104 -1 -322.5 5t-258.5 7
q-114 3 -125 4q-63 7 -99 44q-43 47 -30 98z" />
    <glyph glyph-name="period" unicode="." horiz-adv-x="522" 
d="M106 110q-16 85 34.5 136.5t130.5 52.5q67 1 105 -34t43 -87q6 -61 -35 -114t-115 -63q-54 -7 -104 26.5t-59 82.5z" />
    <glyph glyph-name="zero" unicode="0" horiz-adv-x="1378" 
d="M102 657.5q5 142.5 56.5 265.5t137.5 222t185.5 167.5t201.5 101.5q64 21 130 23t129 -15.5t121.5 -59t101.5 -103.5q2 -2 4 -6t4 -6q59 -89 84.5 -210.5t16.5 -246.5q-19 -244 -152 -456q-95 -151 -224.5 -241t-268.5 -93q-144 -3 -274.5 94t-196.5 265
q-61 156 -56 298.5zM414 596.5q-6 -39.5 2 -73t41.5 -59t90.5 -37.5q112 -24 222 34t180 179q60 103 60 213q0 64 -24 111q-24 48 -67 71t-90 17q-72 -8 -163 -89q-26 -23 -55 -53t-62 -69t-59.5 -79.5t-48 -83t-27.5 -82z" />
    <glyph glyph-name="one" unicode="1" horiz-adv-x="1159" 
d="M107 977q-10 31 0.5 66.5t34.5 63.5q43 50 113 81q80 36 133.5 59.5t107.5 44.5t82 31t103 36.5t124 43.5q3 1 18 6.5t20.5 7.5t21 7t23 7t22.5 5t23.5 3.5t21.5 1t22 -1.5t19.5 -6t18.5 -10q9 -6 17 -16q58 -71 -16 -262q-46 -117 -171 -435t-194 -491
q-47 -116 -90 -160q-34 -35 -79 -48t-89 4q-39 17 -60 59t-20 89q1 58 48 170q42 99 135.5 329t136.5 330q-99 -49 -215 -71q-28 -5 -36.5 -7t-40.5 -7t-48.5 -5.5t-46 -1.5t-47.5 4.5t-39 13.5t-33.5 23t-19.5 36z" />
    <glyph glyph-name="two" unicode="2" horiz-adv-x="1273" 
d="M107 173q-18 65 35 152q17 29 41.5 51.5t57.5 40t58 28t66.5 26t61.5 23.5q158 67 279 173q26 23 59 58.5t73.5 85t67 100.5t38.5 99t-9.5 87t-79.5 59q-54 18 -100 -2.5t-81 -65.5t-66 -94t-69.5 -94t-77.5 -60q-62 -23 -115.5 2.5t-81.5 86.5q-61 133 78 284
q76 81 195.5 142t249.5 77t230 -50q69 -47 108 -118.5t45.5 -149t-7.5 -161.5t-44.5 -158.5t-72.5 -136.5q-38 -56 -91.5 -118t-91.5 -99.5t-107 -104.5q40 15 97.5 23.5t120.5 6t110.5 -24t67.5 -65t-8 -117.5q-13 -34 -43.5 -60.5t-61.5 -41t-81 -25.5t-77 -15t-74 -9
q-164 -18 -347 -1q-318 32 -353 166z" />
    <glyph glyph-name="three" unicode="3" horiz-adv-x="1236" 
d="M102.5 260.5q0.5 46.5 27.5 86.5t70 51q42 10 81.5 -4.5t98.5 -56.5t74 -51q69 -43 158.5 -39t146.5 61q38 38 47.5 95.5t-13 109t-71.5 72.5q-26 11 -59.5 11.5t-51.5 -2.5t-65.5 -15t-55.5 -14q-56 -17 -121.5 -1t-85.5 67q-16 40 3 83.5t59 69.5q23 15 56.5 26t52 14
t62.5 10q129 19 196 57q48 27 79.5 69t34.5 91q3 52 -32 96t-85 45q-38 0 -71.5 -24t-59 -59t-51 -70.5t-59 -61t-71.5 -27.5q-53 -2 -92.5 43t-39.5 101q0 97 97 189q66 62 168.5 100.5t209 45t205 -33.5t150.5 -125q36 -58 39.5 -130t-25.5 -134q-10 -22 -44 -75
q-19 -29 -29 -47t-19 -45t-9 -52q0 -26 8.5 -51t28 -62.5t24.5 -47.5q57 -137 9.5 -283.5t-168.5 -236.5q-76 -57 -173 -85t-194.5 -27t-194.5 27q-170 45 -226 149q-20 44 -19.5 90.5z" />
    <glyph glyph-name="four" unicode="4" horiz-adv-x="1200" 
d="M102.5 813q-0.5 28 11 66.5t22 65t28.5 67.5q6 13 24 60.5t37 91.5t45 99.5t54.5 94t60.5 65t67.5 22t69.5 -42.5q31 -35 37 -77.5t-8.5 -83t-36.5 -82.5t-42.5 -80.5t-31 -73t2 -64.5t52.5 -51q53 -26 99 -23t92.5 22t86.5 48.5t81 56.5t76.5 45.5t72 15.5t68.5 -33
q23 -23 25.5 -60.5t-9 -77.5t-33.5 -89t-43.5 -86t-45 -77.5t-31.5 -56.5q-24 -47 -71 -155t-89.5 -189.5t-89.5 -143.5q-25 -33 -70.5 -57t-90 -30t-76.5 21t-31 87q1 35 19.5 79t51 101t39.5 72q23 48 68.5 143t68.5 142q-58 -15 -92.5 -23.5t-92 -17.5t-99 -7.5t-90.5 13
t-89 35.5q-37 23 -60 49.5t-30 58.5t-7.5 60z" />
    <glyph glyph-name="five" unicode="5" horiz-adv-x="1409" 
d="M105 634q9 49 58 122q221 331 250 377q4 7 7 11.5t5 9.5t3.5 7t0.5 6.5t-0.5 6t-3 6.5t-4.5 6t-6.5 8t-7.5 10q-27 34 -42 67t-15.5 63t23.5 50.5t72 25.5q196 19 433 24q19 0 94.5 6t123.5 6.5t105.5 -14t82.5 -48.5q16 -21 21 -47q8 -44 -12 -90.5t-58 -72.5
q-75 -51 -221 -38q-13 1 -44.5 4.5t-48.5 5t-43 2t-48 -2t-43 -7.5q-37 -9 -73 -44.5t-44 -69t26 -52.5q44 -18 86.5 -20t72.5 5.5t71.5 7.5t83.5 -14q48 -17 84 -60t53.5 -96.5t24.5 -114.5t-5 -114q-18 -97 -83.5 -179.5t-165.5 -164.5q-136 -112 -369 -185
q-200 -63 -309 -1q-46 26 -72.5 80t-21 110.5t46.5 88.5q22 17 53.5 23t54 4.5t65 -7.5t58.5 -7q116 -11 261 67q129 70 185 158q68 106 -19 173l-9 7q-43 30 -91.5 33t-91.5 -13t-94 -46.5t-95 -62.5t-99 -66t-100 -52q-81 -33 -122 -11q-27 15 -38.5 49t-5.5 70z" />
    <glyph glyph-name="six" unicode="6" 
d="M110 315q34 233 149 429t323 375q16 14 89 79t104.5 90.5t92 66t114.5 63.5q110 46 169 7q23 -15 40 -44q37 -63 8 -131q-21 -47 -66 -89.5t-86.5 -67t-105.5 -59t-93 -52.5l-12 -7q-12 -7 -20.5 -13t-22.5 -15.5t-22 -17.5t-14.5 -16.5t-4 -15.5t12.5 -12
q13 -6 53 -22.5t63 -26.5t54 -27.5t50 -34.5q77 -66 122.5 -146.5t30.5 -164.5q-16 -89 -68 -166.5t-126 -130.5q-94 -67 -186.5 -104t-207.5 -53q-50 -7 -103 -8.5t-116 4t-115 28t-78 60.5q-50 73 -28 222zM431.5 396.5q-23.5 -73.5 35.5 -135.5q26 -25 63.5 -25
t73.5 17.5t73.5 46.5t64 56.5t46.5 51.5q67 84 46 150q0 2 -1 5t-2 5q-22 51 -85 63q-47 9 -108 -14t-122 -85t-84.5 -135.5z" />
    <glyph glyph-name="seven" unicode="7" horiz-adv-x="1323" 
d="M103.5 1319q6.5 51 43.5 85q28 26 70.5 32.5t73.5 1.5t81 -17q161 -39 314 -52q28 -2 90 0.5t112.5 -1t83.5 -21.5q88 -48 91 -154q1 -36 -9 -73t-35 -96.5t-29 -69.5q-7 -19 -5 -32q5 -29 50 -33q45 -5 91 -23.5t76 -57.5t12 -87q-15 -38 -51 -65q-50 -38 -127 -41
q-25 -1 -71.5 3t-62.5 4q-2 0 -26.5 2t-44 2t-22.5 -4q-213 -353 -289 -482q-30 -52 -65 -87.5t-72.5 -50.5t-73 13.5t-60.5 102.5q-70 209 206 500q-21 2 -76.5 -3.5t-98 -7t-89.5 19t-71 66.5q-10 20 -13 40q-8 57 26.5 94t89.5 50q24 5 36 6.5t29.5 2t36.5 2.5
q25 2 72.5 3.5t67.5 2.5l27 2q26 1 34 2t31.5 5.5t33.5 11.5t24.5 18.5t20.5 29t6 40.5q0 30 -32 52t-66 30t-60 9q-20 1 -59 1t-60.5 1t-55 4.5t-55.5 11.5t-48 21.5t-46.5 36t-37.5 53.5q-25 45 -18.5 96z" />
    <glyph glyph-name="eight" unicode="8" horiz-adv-x="1284" 
d="M105 277q-17 144 70 247q27 33 78 62t87 53t41 53q4 20 -22.5 59.5t-57 91.5t-34.5 97q-7 79 21 156.5t83 139.5q94 108 252 166.5t291 22.5q39 -11 75 -30q79 -43 130.5 -120t60.5 -166t-25.5 -175t-102.5 -144q-3 -2 -16.5 -13.5t-18.5 -16t-14 -14.5t-13.5 -19
t-6.5 -19q-4 -18 2 -38t12 -31t24 -36t21 -30q43 -69 42 -151.5t-42 -153.5q-64 -111 -140 -174t-192 -84q-173 -32 -350 31q-57 20 -108.5 50t-95.5 80t-51 106zM432 334.5q9 -37.5 36 -60.5q46 -39 115 -25q48 10 108 53q78 55 104 117q26 59 -1 107q-18 32 -55 45t-77 7
q-68 -11 -136.5 -58t-89.5 -107q0 -2 -1 -3q-1 -3 -1 -4q-11 -34 -2 -71.5zM573 982q-6 -36 15.5 -70.5t70.5 -57.5q46 -21 102 -5q82 24 122 112q36 81 13 151q-23 71 -94 70q-33 0 -72 -17q-38 -17 -72.5 -46t-56.5 -65t-28 -72z" />
    <glyph glyph-name="nine" unicode="9" horiz-adv-x="1273" 
d="M103 199q1 43 22.5 79.5t67.5 60.5t109 25q28 0 83 -2.5t84.5 -2t72.5 11t81 34.5q15 9 51.5 45.5t74 83t55.5 87t-4 58.5q-8 5 -95.5 -20.5t-113.5 -20.5q-116 22 -186 136q-46 75 -48 162.5t30 164.5t90 147q78 95 180 157t208 57q79 -4 139 -42.5t94.5 -101.5t52 -132
t21.5 -145q5 -102 -12 -211.5t-55 -215.5t-93.5 -203.5t-132 -177.5t-165 -136t-197.5 -79.5t-226 -7.5q-61 8 -105 38t-64 69t-19 82zM612 979q-1 -34 32 -50q38 -18 115 23.5t118 80.5q75 71 36 111q-32 33 -108 22q-87 -11 -136 -69q-24 -28 -40 -56t-17 -62z" />
    <glyph glyph-name="question" unicode="?" 
d="M321.5 170.5q33.5 50.5 95.5 81.5q37 18 81 21.5t85 -12.5t60 -51q10 -17 13 -43q5 -40 -16 -79t-57 -61q-69 -42 -161 -20q-67 16 -97 60q-37 53 -3.5 103.5zM357 466q-25 75 6 154.5t97 144.5q37 36 83 69t108 71.5t92 59.5q11 8 34 23t38 25.5t37.5 26.5t37 29
t31 29.5t25.5 31.5t14.5 31t3 32t-12.5 31q-34 45 -94.5 35.5t-124 -48.5t-100.5 -86q-10 -12 -28.5 -38.5t-30 -42t-32.5 -31t-44 -20.5q-54 -12 -98 32t-42 99q2 67 45 130.5t109.5 109t140 77t142.5 45.5q141 28 258 -27q60 -28 97 -74q46 -56 55 -132t-17 -143
q-42 -120 -175 -235q-32 -28 -122.5 -96t-145.5 -122.5t-89 -117.5q-4 -8 -21.5 -43.5t-26.5 -49.5t-27 -37.5t-38 -34t-45 -13.5q-46 -5 -85.5 27t-54.5 78z" />
    <glyph glyph-name="A" unicode="A" horiz-adv-x="1597" 
d="M104 123q1 7 1 22q5 67 22 103q50 105 213 441l-113 -17q-8 -1 -16 -1q-40 0 -70 34q-27 32 -27 71q0 12 3 25q21 105 97 157q59 40 138 41q24 0 50 -4q11 -1 20 -1q30 0 46 14q22 18 58 96q23 50 75 138q18 30 32 56q19 34 53 46q15 5 30 5q19 0 37 -8l47 -21
q27 -11 45 -39q138 106 258 148q20 7 43 7q48 0 106 -33q98 -58 121 -136q39 -138 39 -275q0 -51 -5 -102l-3 -25q-5 -46 -5 -67q0 -14 2 -18q5 -6 25 -13q43 -14 60 -58q8 -22 8 -44t-8 -44q-5 -12 -5 -13q-28 -85 -92 -92q-55 -7 -77.5 -38.5t-48.5 -131.5
q-18 -64 -26 -89q-2 -5 -4.5 -15l-3.5 -14q-7 -27 -12 -42.5t-16.5 -41.5t-29.5 -45.5t-42 -33.5q-37 -21 -82 -21q-43 0 -92 19q-40 16 -57 57q-9 21 -9 43q0 20 8 41l113 306q-3 1 -9 4t-9 4q-191 77 -298 115q-61 -100 -192 -328q-14 -25 -43.5 -75.5t-43.5 -75.5l-6 -9
q-39 -67 -71 -92q-31 -24 -85 -41q-14 -4 -20 -6q-17 -6 -32 -6q-35 0 -63 25q-35 31 -35 79q0 9 1 19zM864 902q8 -4 25.5 -11.5t26.5 -11.5q146 -66 187 -66q17 31 43 214q2 15 -2 43q-7 43 -14 60q-16 -2 -49 -18q-118 -55 -217 -210z" />
    <glyph glyph-name="A" unicode="&#xc4;" horiz-adv-x="1597" 
d="M104 123q1 7 1 22q5 67 22 103q50 105 213 441l-113 -17q-8 -1 -16 -1q-40 0 -70 34q-27 32 -27 71q0 12 3 25q21 105 97 157q59 40 138 41q24 0 50 -4q11 -1 20 -1q30 0 46 14q22 18 58 96q23 50 75 138q18 30 32 56q19 34 53 46q15 5 30 5q19 0 37 -8l47 -21
q27 -11 45 -39q138 106 258 148q20 7 43 7q48 0 106 -33q98 -58 121 -136q39 -138 39 -275q0 -51 -5 -102l-3 -25q-5 -46 -5 -67q0 -14 2 -18q5 -6 25 -13q43 -14 60 -58q8 -22 8 -44t-8 -44q-5 -12 -5 -13q-28 -85 -92 -92q-55 -7 -77.5 -38.5t-48.5 -131.5
q-18 -64 -26 -89q-2 -5 -4.5 -15l-3.5 -14q-7 -27 -12 -42.5t-16.5 -41.5t-29.5 -45.5t-42 -33.5q-37 -21 -82 -21q-43 0 -92 19q-40 16 -57 57q-9 21 -9 43q0 20 8 41l113 306q-3 1 -9 4t-9 4q-191 77 -298 115q-61 -100 -192 -328q-14 -25 -43.5 -75.5t-43.5 -75.5l-6 -9
q-39 -67 -71 -92q-31 -24 -85 -41q-14 -4 -20 -6q-17 -6 -32 -6q-35 0 -63 25q-35 31 -35 79q0 9 1 19zM864 902q8 -4 25.5 -11.5t26.5 -11.5q146 -66 187 -66q17 31 43 214q2 15 -2 43q-7 43 -14 60q-16 -2 -49 -18q-118 -55 -217 -210z" />
    <glyph glyph-name="A" unicode="&#xc3;" horiz-adv-x="1597" 
d="M104 123q1 7 1 22q5 67 22 103q50 105 213 441l-113 -17q-8 -1 -16 -1q-40 0 -70 34q-27 32 -27 71q0 12 3 25q21 105 97 157q59 40 138 41q24 0 50 -4q11 -1 20 -1q30 0 46 14q22 18 58 96q23 50 75 138q18 30 32 56q19 34 53 46q15 5 30 5q19 0 37 -8l47 -21
q27 -11 45 -39q138 106 258 148q20 7 43 7q48 0 106 -33q98 -58 121 -136q39 -138 39 -275q0 -51 -5 -102l-3 -25q-5 -46 -5 -67q0 -14 2 -18q5 -6 25 -13q43 -14 60 -58q8 -22 8 -44t-8 -44q-5 -12 -5 -13q-28 -85 -92 -92q-55 -7 -77.5 -38.5t-48.5 -131.5
q-18 -64 -26 -89q-2 -5 -4.5 -15l-3.5 -14q-7 -27 -12 -42.5t-16.5 -41.5t-29.5 -45.5t-42 -33.5q-37 -21 -82 -21q-43 0 -92 19q-40 16 -57 57q-9 21 -9 43q0 20 8 41l113 306q-3 1 -9 4t-9 4q-191 77 -298 115q-61 -100 -192 -328q-14 -25 -43.5 -75.5t-43.5 -75.5l-6 -9
q-39 -67 -71 -92q-31 -24 -85 -41q-14 -4 -20 -6q-17 -6 -32 -6q-35 0 -63 25q-35 31 -35 79q0 9 1 19zM864 902q8 -4 25.5 -11.5t26.5 -11.5q146 -66 187 -66q17 31 43 214q2 15 -2 43q-7 43 -14 60q-16 -2 -49 -18q-118 -55 -217 -210z" />
    <glyph glyph-name="A" unicode="&#xc2;" horiz-adv-x="1597" 
d="M104 123q1 7 1 22q5 67 22 103q50 105 213 441l-113 -17q-8 -1 -16 -1q-40 0 -70 34q-27 32 -27 71q0 12 3 25q21 105 97 157q59 40 138 41q24 0 50 -4q11 -1 20 -1q30 0 46 14q22 18 58 96q23 50 75 138q18 30 32 56q19 34 53 46q15 5 30 5q19 0 37 -8l47 -21
q27 -11 45 -39q138 106 258 148q20 7 43 7q48 0 106 -33q98 -58 121 -136q39 -138 39 -275q0 -51 -5 -102l-3 -25q-5 -46 -5 -67q0 -14 2 -18q5 -6 25 -13q43 -14 60 -58q8 -22 8 -44t-8 -44q-5 -12 -5 -13q-28 -85 -92 -92q-55 -7 -77.5 -38.5t-48.5 -131.5
q-18 -64 -26 -89q-2 -5 -4.5 -15l-3.5 -14q-7 -27 -12 -42.5t-16.5 -41.5t-29.5 -45.5t-42 -33.5q-37 -21 -82 -21q-43 0 -92 19q-40 16 -57 57q-9 21 -9 43q0 20 8 41l113 306q-3 1 -9 4t-9 4q-191 77 -298 115q-61 -100 -192 -328q-14 -25 -43.5 -75.5t-43.5 -75.5l-6 -9
q-39 -67 -71 -92q-31 -24 -85 -41q-14 -4 -20 -6q-17 -6 -32 -6q-35 0 -63 25q-35 31 -35 79q0 9 1 19zM864 902q8 -4 25.5 -11.5t26.5 -11.5q146 -66 187 -66q17 31 43 214q2 15 -2 43q-7 43 -14 60q-16 -2 -49 -18q-118 -55 -217 -210z" />
    <glyph glyph-name="A" unicode="&#xc1;" horiz-adv-x="1597" 
d="M104 123q1 7 1 22q5 67 22 103q50 105 213 441l-113 -17q-8 -1 -16 -1q-40 0 -70 34q-27 32 -27 71q0 12 3 25q21 105 97 157q59 40 138 41q24 0 50 -4q11 -1 20 -1q30 0 46 14q22 18 58 96q23 50 75 138q18 30 32 56q19 34 53 46q15 5 30 5q19 0 37 -8l47 -21
q27 -11 45 -39q138 106 258 148q20 7 43 7q48 0 106 -33q98 -58 121 -136q39 -138 39 -275q0 -51 -5 -102l-3 -25q-5 -46 -5 -67q0 -14 2 -18q5 -6 25 -13q43 -14 60 -58q8 -22 8 -44t-8 -44q-5 -12 -5 -13q-28 -85 -92 -92q-55 -7 -77.5 -38.5t-48.5 -131.5
q-18 -64 -26 -89q-2 -5 -4.5 -15l-3.5 -14q-7 -27 -12 -42.5t-16.5 -41.5t-29.5 -45.5t-42 -33.5q-37 -21 -82 -21q-43 0 -92 19q-40 16 -57 57q-9 21 -9 43q0 20 8 41l113 306q-3 1 -9 4t-9 4q-191 77 -298 115q-61 -100 -192 -328q-14 -25 -43.5 -75.5t-43.5 -75.5l-6 -9
q-39 -67 -71 -92q-31 -24 -85 -41q-14 -4 -20 -6q-17 -6 -32 -6q-35 0 -63 25q-35 31 -35 79q0 9 1 19zM864 902q8 -4 25.5 -11.5t26.5 -11.5q146 -66 187 -66q17 31 43 214q2 15 -2 43q-7 43 -14 60q-16 -2 -49 -18q-118 -55 -217 -210z" />
    <glyph glyph-name="A" unicode="&#xc0;" horiz-adv-x="1597" 
d="M104 123q1 7 1 22q5 67 22 103q50 105 213 441l-113 -17q-8 -1 -16 -1q-40 0 -70 34q-27 32 -27 71q0 12 3 25q21 105 97 157q59 40 138 41q24 0 50 -4q11 -1 20 -1q30 0 46 14q22 18 58 96q23 50 75 138q18 30 32 56q19 34 53 46q15 5 30 5q19 0 37 -8l47 -21
q27 -11 45 -39q138 106 258 148q20 7 43 7q48 0 106 -33q98 -58 121 -136q39 -138 39 -275q0 -51 -5 -102l-3 -25q-5 -46 -5 -67q0 -14 2 -18q5 -6 25 -13q43 -14 60 -58q8 -22 8 -44t-8 -44q-5 -12 -5 -13q-28 -85 -92 -92q-55 -7 -77.5 -38.5t-48.5 -131.5
q-18 -64 -26 -89q-2 -5 -4.5 -15l-3.5 -14q-7 -27 -12 -42.5t-16.5 -41.5t-29.5 -45.5t-42 -33.5q-37 -21 -82 -21q-43 0 -92 19q-40 16 -57 57q-9 21 -9 43q0 20 8 41l113 306q-3 1 -9 4t-9 4q-191 77 -298 115q-61 -100 -192 -328q-14 -25 -43.5 -75.5t-43.5 -75.5l-6 -9
q-39 -67 -71 -92q-31 -24 -85 -41q-14 -4 -20 -6q-17 -6 -32 -6q-35 0 -63 25q-35 31 -35 79q0 9 1 19zM864 902q8 -4 25.5 -11.5t26.5 -11.5q146 -66 187 -66q17 31 43 214q2 15 -2 43q-7 43 -14 60q-16 -2 -49 -18q-118 -55 -217 -210z" />
    <glyph glyph-name="B" unicode="B" horiz-adv-x="1503" 
d="M104 174q-3 15 -3 30q0 17 4 37q7 37 13.5 60.5t19.5 58.5q5 12 5 13l147 425q23 67 36 102t41 100t52.5 107.5t62 92.5t79.5 88q95 86 219 122q80 24 162 24q44 0 88 -7q88 -14 153.5 -56t96.5 -104q28 -55 28 -118q0 -58 -24 -122q-25 -68 -84 -153q38 -25 72 -59
q68 -69 100 -153q29 -76 29 -161.5t-30 -161.5q-45 -115 -148 -198.5t-242 -117.5q-95 -23 -200 -23q-122 0 -293 35q-123 25 -176 83q-38 -25 -81 -30q-8 -1 -16 -1q-52 0 -84 35q-21 22 -27 52zM444 382q54 -10 136 -59l12 -7q72 -42 154 -53q28 -4 55 -4q54 0 108 15
q30 8 57 21q107 50 137 145q8 24 8 48q0 42 -24 84q-28 49 -75 60q-11 3 -25 3q-44 0 -113 -27l-16 -6q-101 -40 -159 -40h-3q-54 1 -102 32t-62 83q-14 -54 -21 -80l-6 -21q-9 -35 -30 -96q-26 -78 -31 -98zM579 825q35 35 86 53q35 12 103 22q58 8 85 16q50 17 90.5 55.5
t59.5 88.5q11 26 11 46q0 18 -9 31q-17 25 -66 25q-20 0 -29 -2q-101 -17 -188.5 -104.5t-140.5 -224.5q-1 -1 -1 -3t-1 -3z" />
    <glyph glyph-name="C" unicode="C" horiz-adv-x="1624" 
d="M116 776q30 130 114 247t211 196q203 127 448 186q127 31 243 31q108 0 207 -27q61 -16 107 -50q45 -35 67 -87q9 -23 9 -47q0 -33 -16 -70q-15 -36 -40.5 -58t-51 -31t-62.5 -10h-14q-28 0 -50 3q-28 4 -69 10t-63 8q-40 4 -80 4l-288 -51q-184 -65 -305 -199
q-53 -60 -69 -122q-7 -27 -7 -53q0 -33 11 -64q20 -55 65.5 -102t112.5 -82q157 -82 318 -82q115 0 233 42q114 40 189 40q141 0 143 -142v-6q1 -48 -15 -87q-16 -41 -46 -67.5t-70 -46t-84.5 -29.5t-92.5 -16t-92.5 -8.5t-86.5 -3.5q-28 -1 -41 -1q-29 -1 -57 -1
q-187 0 -339 46q-175 54 -300 201q-101 119 -135 259q-18 75 -18 147q0 62 14 123z" />
    <glyph glyph-name="D" unicode="D" horiz-adv-x="1544" 
d="M102 301q-2 18 4 43.5t10.5 43t14.5 42.5t17.5 41.5t18.5 40.5t17 40q85 206 198 437q8 16 35.5 75t42 86.5t40.5 73t53 79t57 60.5q42 39 90 51q30 8 59 9q16 0 31 -3q42 -7 99 -30q4 -2 8 -1q27 7 85 13q19 2 40 2q45 0 101 -8q83 -12 125 -48q86 -74 125 -179.5
t59 -251.5q12 -85 12 -163q0 -206 -84 -361q-54 -99 -141.5 -171.5t-195.5 -116.5q-150 -62 -424 -94q-63 -11 -140 -11h-19q-88 2 -154 30q-67 28 -116 89.5t-64 137.5q-2 26 -4 44zM438 361q-7 -17 2 -32t25 -15q17 0 33 -1q108 1 192 13q97 14 178 59q268 152 283 358
q4 25 4 59q1 20 -1 43q-4 62 -12.5 121.5t-40 108t-80.5 60.5q-15 4 -30 4q-30 -1 -61 -15q-47 -22 -80.5 -50.5t-78 -91t-62 -92t-54.5 -93.5q-20 -34 -28 -48q-92 -152 -189 -388z" />
    <glyph glyph-name="E" unicode="E" horiz-adv-x="1492" 
d="M152 151q-7 22 -7 51q0 66 39 166q51 129 103 259q166 411 235 626q10 32 28 58t43 44t51 31.5t61 21.5t63.5 13.5t68 7.5t65.5 3t65 1t57 1q0 1 33 0h33q286 -3 299 -153q1 -8 1 -15q0 -58 -42 -105q-48 -53 -113 -67q-31 -7 -77 -7q-18 0 -100 5q-83 5 -94 5h-14
q-66 -2 -146 -29t-100 -68q-15 -30 7 -60q13 -18 35 -28t39 -12t48 -3q78 -2 106 -26q45 -39 63 -103q7 -25 7 -50q0 -37 -16 -72q-43 -82 -168 -82q-2 0 -7.5 0.5t-8.5 0.5l-51 3q-63 5 -75 5q-58 0 -98 -17q-43 -17 -79 -67q-39 -53 -38 -98q0 -40 34 -58q54 -29 133 -29
q65 0 214 33q118 26 164 30q18 1 48 1q131 0 170 -76q15 -32 15 -66q0 -24 -8 -50q-18 -62 -63 -99q-68 -55 -210 -67q-114 -10 -251 -10q-173 0 -341 19q-185 22 -221 132z" />
    <glyph glyph-name="E" unicode="&#xca;" horiz-adv-x="1492" 
d="M152 151q-7 22 -7 51q0 66 39 166q51 129 103 259q166 411 235 626q10 32 28 58t43 44t51 31.5t61 21.5t63.5 13.5t68 7.5t65.5 3t65 1t57 1q0 1 33 0h33q286 -3 299 -153q1 -8 1 -15q0 -58 -42 -105q-48 -53 -113 -67q-31 -7 -77 -7q-18 0 -100 5q-83 5 -94 5h-14
q-66 -2 -146 -29t-100 -68q-15 -30 7 -60q13 -18 35 -28t39 -12t48 -3q78 -2 106 -26q45 -39 63 -103q7 -25 7 -50q0 -37 -16 -72q-43 -82 -168 -82q-2 0 -7.5 0.5t-8.5 0.5l-51 3q-63 5 -75 5q-58 0 -98 -17q-43 -17 -79 -67q-39 -53 -38 -98q0 -40 34 -58q54 -29 133 -29
q65 0 214 33q118 26 164 30q18 1 48 1q131 0 170 -76q15 -32 15 -66q0 -24 -8 -50q-18 -62 -63 -99q-68 -55 -210 -67q-114 -10 -251 -10q-173 0 -341 19q-185 22 -221 132z" />
    <glyph glyph-name="E" unicode="&#xc9;" horiz-adv-x="1492" 
d="M152 151q-7 22 -7 51q0 66 39 166q51 129 103 259q166 411 235 626q10 32 28 58t43 44t51 31.5t61 21.5t63.5 13.5t68 7.5t65.5 3t65 1t57 1q0 1 33 0h33q286 -3 299 -153q1 -8 1 -15q0 -58 -42 -105q-48 -53 -113 -67q-31 -7 -77 -7q-18 0 -100 5q-83 5 -94 5h-14
q-66 -2 -146 -29t-100 -68q-15 -30 7 -60q13 -18 35 -28t39 -12t48 -3q78 -2 106 -26q45 -39 63 -103q7 -25 7 -50q0 -37 -16 -72q-43 -82 -168 -82q-2 0 -7.5 0.5t-8.5 0.5l-51 3q-63 5 -75 5q-58 0 -98 -17q-43 -17 -79 -67q-39 -53 -38 -98q0 -40 34 -58q54 -29 133 -29
q65 0 214 33q118 26 164 30q18 1 48 1q131 0 170 -76q15 -32 15 -66q0 -24 -8 -50q-18 -62 -63 -99q-68 -55 -210 -67q-114 -10 -251 -10q-173 0 -341 19q-185 22 -221 132z" />
    <glyph glyph-name="E" unicode="&#xc8;" horiz-adv-x="1492" 
d="M152 151q-7 22 -7 51q0 66 39 166q51 129 103 259q166 411 235 626q10 32 28 58t43 44t51 31.5t61 21.5t63.5 13.5t68 7.5t65.5 3t65 1t57 1q0 1 33 0h33q286 -3 299 -153q1 -8 1 -15q0 -58 -42 -105q-48 -53 -113 -67q-31 -7 -77 -7q-18 0 -100 5q-83 5 -94 5h-14
q-66 -2 -146 -29t-100 -68q-15 -30 7 -60q13 -18 35 -28t39 -12t48 -3q78 -2 106 -26q45 -39 63 -103q7 -25 7 -50q0 -37 -16 -72q-43 -82 -168 -82q-2 0 -7.5 0.5t-8.5 0.5l-51 3q-63 5 -75 5q-58 0 -98 -17q-43 -17 -79 -67q-39 -53 -38 -98q0 -40 34 -58q54 -29 133 -29
q65 0 214 33q118 26 164 30q18 1 48 1q131 0 170 -76q15 -32 15 -66q0 -24 -8 -50q-18 -62 -63 -99q-68 -55 -210 -67q-114 -10 -251 -10q-173 0 -341 19q-185 22 -221 132z" />
    <glyph glyph-name="F" unicode="F" horiz-adv-x="1591" 
d="M103 132v15q1 33 7 67q8 40 24.5 90t32.5 88t35 83t27 68q81 226 165 433q9 21 38.5 100t47 120t54 95.5t77.5 84.5q35 25 79 39t96 17q39 2 71 2h21q42 -1 101 -5t87 -5q21 0 75 2q43 2 77 1q8 1 16 1q40 0 88 -6.5t84.5 -25.5t57.5 -51q26 -44 26 -90q0 -36 -16 -73
q-36 -85 -114 -121q-50 -23 -112 -23h-5q-61 0 -111 13q-52 13 -116 19q-23 2 -43 1q-38 0 -71 -6q-93 -21 -150 -85q-33 -36 -33 -63q0 -10 5 -18q12 -22 48.5 -22t97.5 22q7 2 14 5q44 17 78 23q19 3 38 3q14 0 29 -2q34 -4 63 -27.5t53 -66.5q29 -51 29 -101
q0 -28 -8 -56q-24 -79 -108 -113q-34 -14 -76 -16q-12 -1 -22 -1q-28 0 -52 4q-32 5 -76.5 11.5t-75.5 6.5q-103 0 -163.5 -53.5t-103.5 -158.5q-10 -25 -25.5 -72.5t-28.5 -82.5t-32.5 -74t-48 -68t-65.5 -45q-33 -16 -65 -16q-15 0 -31 4q-47 11 -72 57q-16 30 -18 72z
" />
    <glyph glyph-name="G" unicode="G" horiz-adv-x="1505" 
d="M102 532q2 118 47.5 237t111 218t143.5 174q163 156 370 227q139 49 277 49q68 0 136 -12q113 -19 167 -74q1 -1 2.5 -3t2.5 -3q33 -37 43 -87q2 -14 2 -29q0 -33 -15 -64q-13 -24 -34 -38.5t-44 -20.5t-52 -6t-54 3t-55 7q-8 1 -12 2q-41 6 -82 6q-126 0 -250 -56
q-163 -73 -273 -220q-6 -8 -2 -16.5t14 -9.5q22 -2 45 -2q31 0 64 4q56 7 133 24t109 22q49 8 96 8q55 0 106 -11q96 -21 156 -95q59 -73 64 -184q1 -13 1 -25q0 -97 -38 -176q-71 -158 -265 -269q-194 -113 -377 -113q-48 0 -95 8q-125 20 -231.5 97t-162.5 196
q-48 110 -48 224v8zM413 577q-11 -31 -11 -60q0 -49 31 -93q62 -86 196 -88h4q92 0 179 42q89 43 154 120q8 9 1.5 19.5t-18.5 7.5q-136 -38 -226 -38q-14 0 -27 1q-72 5 -150 52q-41 23 -83 53q-13 9 -29 4t-21 -20z" />
    <glyph glyph-name="H" unicode="H" horiz-adv-x="1554" 
d="M112 236q138 431 315 909q5 13 19 58.5t26 76.5t31.5 69t46 59.5t57.5 24.5q13 1 24 1q77 0 117 -45q20 -23 28 -53q4 -16 5 -35q0 -14 -3 -29q-6 -34 -14 -60.5t-22.5 -64t-19.5 -54.5q-1 -5 -7.5 -25.5t-9 -28.5t-7.5 -27.5t-6 -30.5t-1 -28t3.5 -28.5t10 -24
t17.5 -22.5q25 -22 48 -30q83 -28 139 -28h4q60 1 102 60q27 38 49 88.5t45.5 120t33.5 95.5q3 8 11.5 30.5t13 34t13 29t18 31.5t20.5 25q29 30 76 32h10q40 0 70 -18q57 -32 70 -87q6 -25 7 -51.5t-5.5 -58t-11 -50.5t-16.5 -57t-15 -49q-30 -102 -66.5 -215.5t-83.5 -255
t-71 -215.5q-16 -51 -31 -88.5t-40 -83t-59.5 -78t-76.5 -48.5q-28 -11 -54 -11q-20 0 -40 6q-44 14 -70 60q-16 27 -20 59q-1 9 -1 20q1 25 7 53q10 40 16 60.5t22 64.5q4 10 11.5 29t11.5 31t10.5 32.5t8 32.5t3.5 32.5t-3 31.5q-6 28 -45.5 49t-87.5 29q-35 6 -71 7
l-25 -1q-48 -3 -71 -19q-64 -45 -102 -192q-5 -14 -20 -62t-24 -73.5t-24.5 -62t-31.5 -62.5q-28 -45 -75 -71q-35 -20 -73 -20q-12 0 -26 2q-52 8 -80 62q-20 37 -20 78q0 29 10 60z" />
    <glyph glyph-name="I" unicode="I" horiz-adv-x="854" 
d="M104 233q2 47 17 105.5t28.5 107.5t35.5 109.5t36 97.5t33.5 85.5t24.5 61.5q6 17 27 80q97 298 173 424q79 130 153 130q29 0 57 -20q22 -16 36 -38t20.5 -43.5t6.5 -51.5t-2.5 -52t-11 -56.5t-14.5 -52.5l-17 -51t-14 -43q-48 -150 -146 -450q-6 -19 -22 -81
q-11 -41 -17.5 -64t-20 -69.5t-24 -76t-27 -72.5t-32 -70t-35.5 -58.5t-41 -47.5t-45 -28t-51 -9t-56 18q-31 17 -49 48q-17 32 -21 76q-2 26 -3 52q0 19 1 39z" />
    <glyph glyph-name="I" unicode="&#xce;" horiz-adv-x="854" 
d="M104 233q2 47 17 105.5t28.5 107.5t35.5 109.5t36 97.5t33.5 85.5t24.5 61.5q6 17 27 80q97 298 173 424q79 130 153 130q29 0 57 -20q22 -16 36 -38t20.5 -43.5t6.5 -51.5t-2.5 -52t-11 -56.5t-14.5 -52.5l-17 -51t-14 -43q-48 -150 -146 -450q-6 -19 -22 -81
q-11 -41 -17.5 -64t-20 -69.5t-24 -76t-27 -72.5t-32 -70t-35.5 -58.5t-41 -47.5t-45 -28t-51 -9t-56 18q-31 17 -49 48q-17 32 -21 76q-2 26 -3 52q0 19 1 39z" />
    <glyph glyph-name="I" unicode="&#xcd;" horiz-adv-x="854" 
d="M104 233q2 47 17 105.5t28.5 107.5t35.5 109.5t36 97.5t33.5 85.5t24.5 61.5q6 17 27 80q97 298 173 424q79 130 153 130q29 0 57 -20q22 -16 36 -38t20.5 -43.5t6.5 -51.5t-2.5 -52t-11 -56.5t-14.5 -52.5l-17 -51t-14 -43q-48 -150 -146 -450q-6 -19 -22 -81
q-11 -41 -17.5 -64t-20 -69.5t-24 -76t-27 -72.5t-32 -70t-35.5 -58.5t-41 -47.5t-45 -28t-51 -9t-56 18q-31 17 -49 48q-17 32 -21 76q-2 26 -3 52q0 19 1 39z" />
    <glyph glyph-name="I" unicode="&#xcc;" horiz-adv-x="854" 
d="M104 233q2 47 17 105.5t28.5 107.5t35.5 109.5t36 97.5t33.5 85.5t24.5 61.5q6 17 27 80q97 298 173 424q79 130 153 130q29 0 57 -20q22 -16 36 -38t20.5 -43.5t6.5 -51.5t-2.5 -52t-11 -56.5t-14.5 -52.5l-17 -51t-14 -43q-48 -150 -146 -450q-6 -19 -22 -81
q-11 -41 -17.5 -64t-20 -69.5t-24 -76t-27 -72.5t-32 -70t-35.5 -58.5t-41 -47.5t-45 -28t-51 -9t-56 18q-31 17 -49 48q-17 32 -21 76q-2 26 -3 52q0 19 1 39z" />
    <glyph glyph-name="J" unicode="J" horiz-adv-x="1583" 
d="M107 618q9 66 46.5 113t100.5 50h8q58 0 96 -41q40 -45 51 -110q2 -9 6 -36.5t7 -44.5t9 -44.5t14 -45.5t18 -36.5t24.5 -29.5t32.5 -13q24 -3 48 7.5t40 25.5t35 43t27 43t22 42q21 43 36.5 98.5t21 88t16.5 105.5q9 60 9 110q0 121 -51 183q-18 22 -46.5 30.5t-54 7.5
t-55.5 5t-50 24q-35 36 -35 79q0 14 3 29q16 60 71 92q41 24 112 33q64 9 103 9h8q40 -1 120 -5q155 -7 315 -40q166 -35 235 -119q31 -37 31 -79q0 -20 -7 -40q-16 -48 -56 -64q-31 -12 -65 -12q-11 0 -23 2l-96 10q-10 1 -20 1q-37 0 -68 -14q-40 -18 -56 -69
q-15 -44 -18 -71q-3 -23 -14 -120.5t-17.5 -137t-20.5 -114.5t-34 -132.5t-48 -112.5q-68 -133 -178.5 -224t-245.5 -94h-5q-66 0 -129 28q-66 29 -117 81q-52 53 -82 104t-48 119q-30 116 -30 214q0 37 4 72z" />
    <glyph glyph-name="K" unicode="K" horiz-adv-x="1474" 
d="M123 106q-21 56 -21 124t21 149q15 59 35.5 118.5t55 148t44.5 115.5q10 28 69.5 195.5t96.5 254.5q80 188 159 226q22 10 42 10q30 1 59 -21q48 -36 60 -99q7 -17 2.5 -48t-7.5 -49t-14.5 -49.5t-19 -48.5t-21 -46t-19.5 -43q17 5 35.5 13t40.5 20.5t38.5 22.5
t42.5 27.5t37.5 25.5t39.5 27.5t33 23.5q9 6 61.5 45t82 58.5t75.5 41.5t80 24h11q56 0 94 -36q35 -35 35 -88q0 -9 -1 -19q-3 -29 -17 -57.5t-32 -53t-48.5 -51t-55 -45.5t-65.5 -43.5t-65.5 -38t-69.5 -35t-62.5 -29.5t-59 -26t-46.5 -20t-27 -11t-38.5 -16.5t-36.5 -19
t-32 -24.5t-13 -27q-2 -21 6.5 -41t32.5 -45t41 -40t59 -48t59 -47q8 -7 34 -27.5t46.5 -37t51.5 -43.5t54.5 -50.5t49.5 -54t41.5 -57t26 -57t8.5 -57t-17.5 -54t-45.5 -50.5q-23 -17 -48 -22.5t-52 4t-48.5 19.5t-51 34.5t-44.5 38t-43.5 42l-34.5 34.5q-52 50 -68.5 63
t-69.5 64q-11 11 -80 70.5t-114 103.5q-12 -36 -31 -91.5t-64 -162t-73 -134.5q-33 -34 -73 -46q-17 -5 -35 -6q-21 0 -41 9q-36 16 -55 63z" />
    <glyph glyph-name="L" unicode="L" horiz-adv-x="1329" 
d="M104 144q-4 19 -3 40q1 24 5 52q8 50 17.5 87t28 93t23.5 75q29 102 101 281.5t91 233.5q15 43 24 67t31 77.5t40 87t46 77.5t54 68t60 40q26 12 51 12q8 0 16 -1q100 -14 100 -147q0 -137 -107 -402q-3 -8 -4 -11q-12 -30 -46.5 -97t-61.5 -125.5t-50 -122.5
q-19 -52 -19 -94q-1 -9 1 -19q6 -50 43 -75q31 -21 82 -23h21q42 0 88 6l116 16q40 6 83 6q21 0 41 -1q64 -4 111 -26q83 -37 103 -113q5 -18 5 -35q0 -57 -51 -109q-16 -16 -38 -27t-38 -16.5t-47.5 -9t-42.5 -4t-49 -0.5h-43q-155 -2 -469 -4q-8 0 -47 -0.5t-54.5 0t-49 4
t-52.5 10.5t-41.5 21.5t-37.5 34.5q-23 31 -31 73z" />
    <glyph glyph-name="M" unicode="M" horiz-adv-x="1994" 
d="M102 174v15q0 33 6 65q6 40 19 88t26.5 86t28.5 82.5t22 71.5q24 88 73.5 264.5t74.5 265.5l24 87t24 86q17 60 64 76q18 6 37 6q29 0 59 -15q48 -25 73 -73q12 11 43.5 42.5t49 46t46.5 34.5t58 27t62 5q46 -3 95.5 -28t86.5 -62q31 -31 50.5 -48.5t50 -37.5t58.5 -27
q23 -5 45 -5q19 0 38 4q41 8 107 39.5t81 37.5q62 24 121 24q48 0 95 -16q88 -30 134 -118q16 -30 24 -66q10 -36 14 -64q2 -15 2 -35q0 -18 -2 -38q-4 -46 -6 -68t-14.5 -74t-16 -65.5t-20 -70.5t-17.5 -61q-21 -74 -70 -221.5t-70 -221.5q-10 -35 -25 -67.5t-40 -68.5
t-65 -57q-36 -19 -78 -19h-8q-53 2 -77 40q-21 32 -21 84q0 8 1 18q4 63 20.5 137.5t45.5 155.5t55.5 148t49.5 124t28 74q14 52 14 90q0 55 -29 83q-37 32 -76 32h-1q-40 0 -81.5 -33.5t-79.5 -82t-73.5 -113t-64 -128t-49.5 -125.5q-10 -28 -25.5 -83.5t-30.5 -98
t-35 -76.5q-35 -61 -89 -87q-25 -12 -49 -12q-28 0 -55 16q-33 23 -50.5 69.5t-17.5 99.5q0 68 36 192q13 44 48 107.5t67 117t57 109.5q22 49 22 91v12q-4 48 -42 81q-17 15 -39 15q-94 0 -262 -295q-85 -148 -179 -358q-11 -24 -44.5 -111t-63 -138.5t-75.5 -92.5
q-37 -33 -68 -38q-6 -1 -12 -1q-29 0 -55 19q-32 23 -45 58q-13 32 -15 74z" />
    <glyph glyph-name="N" unicode="N" horiz-adv-x="1564" 
d="M42 129q-1 12 -1 25q-1 39 7 81q10 55 31.5 127.5t42.5 130.5t50 132q73 185 142 335t99 199q100 168 226 176h10q95 0 179 -109q23 -31 40.5 -69t30.5 -93t19 -84.5t16 -101.5l13 -87l25 67q24 68 38 108q91 247 131 347q1 3 3.5 9t3.5 9q13 34 21.5 54t28 53t38 50
t47 27t60.5 2q68 -17 97 -75q18 -34 19 -86v-13q-1 -45 -7 -83q-8 -44 -27.5 -106t-31.5 -92.5t-33 -79.5q-8 -20 -8 -21q-134 -323 -306 -604q-5 -8 -17 -28q-17 -29 -27 -45t-30 -43t-36.5 -41t-40.5 -26t-49 -12q-28 0 -50 8.5t-37.5 27.5t-25.5 35.5t-18.5 45.5
t-11.5 43.5t-8 42.5l-51 340l-19 139q-85 -204 -105 -250q-80 -177 -178 -389q-2 -5 -13.5 -29.5t-15.5 -33.5t-16.5 -31.5t-20 -33t-21.5 -27t-26.5 -25t-29 -15.5t-33.5 -9q-7 -1 -14 -1q-59 0 -88 47q-19 31 -22 82z" />
    <glyph glyph-name="O" unicode="O" horiz-adv-x="1480" 
d="M104 594q0 7 -1 15q0 86 17 172q24 105 74 203.5t116.5 177t148.5 141t169 95.5q86 33 178 41q18 2 37 2q72 0 141 -26q179 -61 297 -265q94 -163 97 -366v-13q0 -195 -87 -356q-67 -124 -177 -215t-244 -145q-138 -55 -259 -55q-78 0 -149 23q-79 26 -145.5 84
t-111 134.5t-72 167.5t-29.5 185zM389 679q-7 -29 -7 -58q0 -67 38 -135q54 -96 146 -129q51 -16 102 -16q41 1 81 11q90 24 168 89q124 105 160 250q13 47 13 97q0 30 -4 58q-12 80 -53 141q-32 48 -66 75q-35 26 -69 28q-8 1 -16 1q-26 0 -50 -6q-32 -8 -68.5 -32.5
t-65 -46.5t-67 -54t-64.5 -50q-97 -67 -143 -139q-24 -38 -35 -84z" />
    <glyph glyph-name="O" unicode="&#xd6;" horiz-adv-x="1480" 
d="M104 594q0 7 -1 15q0 86 17 172q24 105 74 203.5t116.5 177t148.5 141t169 95.5q86 33 178 41q18 2 37 2q72 0 141 -26q179 -61 297 -265q94 -163 97 -366v-13q0 -195 -87 -356q-67 -124 -177 -215t-244 -145q-138 -55 -259 -55q-78 0 -149 23q-79 26 -145.5 84
t-111 134.5t-72 167.5t-29.5 185zM389 679q-7 -29 -7 -58q0 -67 38 -135q54 -96 146 -129q51 -16 102 -16q41 1 81 11q90 24 168 89q124 105 160 250q13 47 13 97q0 30 -4 58q-12 80 -53 141q-32 48 -66 75q-35 26 -69 28q-8 1 -16 1q-26 0 -50 -6q-32 -8 -68.5 -32.5
t-65 -46.5t-67 -54t-64.5 -50q-97 -67 -143 -139q-24 -38 -35 -84z" />
    <glyph glyph-name="O" unicode="&#xd5;" horiz-adv-x="1480" 
d="M104 594q0 7 -1 15q0 86 17 172q24 105 74 203.5t116.5 177t148.5 141t169 95.5q86 33 178 41q18 2 37 2q72 0 141 -26q179 -61 297 -265q94 -163 97 -366v-13q0 -195 -87 -356q-67 -124 -177 -215t-244 -145q-138 -55 -259 -55q-78 0 -149 23q-79 26 -145.5 84
t-111 134.5t-72 167.5t-29.5 185zM389 679q-7 -29 -7 -58q0 -67 38 -135q54 -96 146 -129q51 -16 102 -16q41 1 81 11q90 24 168 89q124 105 160 250q13 47 13 97q0 30 -4 58q-12 80 -53 141q-32 48 -66 75q-35 26 -69 28q-8 1 -16 1q-26 0 -50 -6q-32 -8 -68.5 -32.5
t-65 -46.5t-67 -54t-64.5 -50q-97 -67 -143 -139q-24 -38 -35 -84z" />
    <glyph glyph-name="O" unicode="&#xd4;" horiz-adv-x="1480" 
d="M104 594q0 7 -1 15q0 86 17 172q24 105 74 203.5t116.5 177t148.5 141t169 95.5q86 33 178 41q18 2 37 2q72 0 141 -26q179 -61 297 -265q94 -163 97 -366v-13q0 -195 -87 -356q-67 -124 -177 -215t-244 -145q-138 -55 -259 -55q-78 0 -149 23q-79 26 -145.5 84
t-111 134.5t-72 167.5t-29.5 185zM389 679q-7 -29 -7 -58q0 -67 38 -135q54 -96 146 -129q51 -16 102 -16q41 1 81 11q90 24 168 89q124 105 160 250q13 47 13 97q0 30 -4 58q-12 80 -53 141q-32 48 -66 75q-35 26 -69 28q-8 1 -16 1q-26 0 -50 -6q-32 -8 -68.5 -32.5
t-65 -46.5t-67 -54t-64.5 -50q-97 -67 -143 -139q-24 -38 -35 -84z" />
    <glyph glyph-name="O" unicode="&#xd3;" horiz-adv-x="1480" 
d="M104 594q0 7 -1 15q0 86 17 172q24 105 74 203.5t116.5 177t148.5 141t169 95.5q86 33 178 41q18 2 37 2q72 0 141 -26q179 -61 297 -265q94 -163 97 -366v-13q0 -195 -87 -356q-67 -124 -177 -215t-244 -145q-138 -55 -259 -55q-78 0 -149 23q-79 26 -145.5 84
t-111 134.5t-72 167.5t-29.5 185zM389 679q-7 -29 -7 -58q0 -67 38 -135q54 -96 146 -129q51 -16 102 -16q41 1 81 11q90 24 168 89q124 105 160 250q13 47 13 97q0 30 -4 58q-12 80 -53 141q-32 48 -66 75q-35 26 -69 28q-8 1 -16 1q-26 0 -50 -6q-32 -8 -68.5 -32.5
t-65 -46.5t-67 -54t-64.5 -50q-97 -67 -143 -139q-24 -38 -35 -84z" />
    <glyph glyph-name="O" unicode="&#xd2;" horiz-adv-x="1480" 
d="M104 594q0 7 -1 15q0 86 17 172q24 105 74 203.5t116.5 177t148.5 141t169 95.5q86 33 178 41q18 2 37 2q72 0 141 -26q179 -61 297 -265q94 -163 97 -366v-13q0 -195 -87 -356q-67 -124 -177 -215t-244 -145q-138 -55 -259 -55q-78 0 -149 23q-79 26 -145.5 84
t-111 134.5t-72 167.5t-29.5 185zM389 679q-7 -29 -7 -58q0 -67 38 -135q54 -96 146 -129q51 -16 102 -16q41 1 81 11q90 24 168 89q124 105 160 250q13 47 13 97q0 30 -4 58q-12 80 -53 141q-32 48 -66 75q-35 26 -69 28q-8 1 -16 1q-26 0 -50 -6q-32 -8 -68.5 -32.5
t-65 -46.5t-67 -54t-64.5 -50q-97 -67 -143 -139q-24 -38 -35 -84z" />
    <glyph glyph-name="P" unicode="P" horiz-adv-x="1521" 
d="M102 133q-1 19 3 44.5t7.5 42.5t13.5 49.5t14 43.5t16 46q15 41 22 65q6 22 18.5 65.5t19.5 65.5q69 237 76 262q12 45 28 114q17 74 28.5 115.5t36 101t56.5 101.5q37 50 100.5 88.5t137 60t153.5 32.5q67 9 129 9h23q72 -2 130 -15q158 -36 245 -175q62 -98 62 -207
q0 -45 -11 -92q-29 -125 -123 -226t-237 -159q-127 -52 -270 -60q-22 -1 -43 -1l-87 5q-24 3 -44 3q-46 0 -74 -17q-30 -18 -51 -76t-26 -112l-2 -21q-4 -41 -7 -62.5t-11.5 -58.5t-21 -59.5t-35 -47t-53.5 -39.5q-38 -19 -82 -19q-33 0 -61 12q-56 25 -74 85q-5 17 -6 36z
M651 808q49 -48 117 -47q38 0 82 14q93 31 172.5 110.5t91.5 153.5q2 11 2 21q0 46 -38 75q-28 20 -76 20q-77 0 -172.5 -46t-160.5 -121q-51 -59 -51 -108q0 -39 33 -72z" />
    <glyph glyph-name="Q" unicode="Q" horiz-adv-x="1595" 
d="M117 1002q43 153 162.5 258.5t284.5 157.5q133 43 269 43q31 0 62 -2q229 -16 393 -142q73 -57 119 -122q57 -81 77 -181q10 -48 10 -95q0 -52 -12 -105q-22 -99 -87 -171q-36 -40 -95.5 -82t-108.5 -71.5t-97.5 -76t-72.5 -98.5q-19 -42 -31.5 -127t-17.5 -105
q-16 -64 -56 -112t-95 -51h-9q-53 0 -94 46q-44 51 -49 116q-1 8 -1 17q0 31 9 65q11 45 23 73.5t36 77.5q-37 -5 -73 -5q-142 0 -277 78q-169 99 -237 268q-48 122 -48 229q0 61 16 117zM404 793q7 -53 50 -113q45 -62 124 -84q35 -10 68 -10q42 0 82 16q-11 27 -11 54
q0 25 9 50q18 54 63 83q16 10 35 16q19 5 37 5q42 0 83 -27q60 -39 68 -102q127 76 174 145q34 50 40 107v18q0 47 -24 89q-27 43 -79 64q-47 18 -97 18h-10q-54 -2 -111 -11q-52 -10 -95.5 -20t-110.5 -30.5t-116 -43t-96.5 -57.5t-68.5 -74q-15 -30 -15 -68q0 -12 1 -25z
" />
    <glyph glyph-name="R" unicode="R" horiz-adv-x="1685" 
d="M103 196q4 76 69 210q28 57 91 216q35 88 54.5 135.5t59 136.5t68 140.5t73.5 125.5t83 115.5t90 85.5t102 60q47 15 103 15h7q60 -1 122 -27q115 -49 183 -173q54 -100 55 -206q0 -26 -4 -53q-17 -134 -111.5 -233t-216.5 -111q16 -56 26 -87t31.5 -74.5t47.5 -72.5
q44 -49 106 -63q17 -4 32 -3q42 0 79 26q23 18 57 72.5t59 72.5q30 19 63 19q4 -1 8 -1q37 -2 71 -26q35 -24 53 -61q21 -47 21 -98q0 -12 -1 -23q-6 -63 -37 -119q-51 -92 -147 -138q-87 -41 -181 -41h-21q-106 5 -201 53q-54 27 -107 68.5t-93 81t-89 100.5t-78 101
t-77 109q-36 -38 -56.5 -88.5t-38.5 -134t-26 -109.5q-28 -95 -97 -157q-46 -41 -92 -41q-24 0 -49 11q-46 20 -70 73q-21 47 -21 100v13zM687 855q-3 -12 4.5 -18.5t26.5 -7.5h8q52 -1 112 33q66 36 114 84q47 47 57 92q2 8 2 13q1 7 1 14q0 47 -31 77q-20 20 -48.5 26
t-54.5 -6q-35 -16 -70 -82q-14 -25 -40.5 -75t-39.5 -75q-5 -8 -16 -25t-16.5 -27.5t-8.5 -22.5z" />
    <glyph glyph-name="S" unicode="S" horiz-adv-x="1439" 
d="M109 332q16 59 62 84q29 16 63 16.5t60.5 -8.5t60 -29t50.5 -33.5t41 -33.5q40 -34 84 -44q14 -3 30 -3q31 0 62 15q25 15 37.5 39t10 55.5t-7.5 60t-21.5 67t-27 60.5t-28.5 56.5t-21 39.5q-44 86 -59 183q-7 48 -7 88q0 39 6 67q12 60 59 144q76 139 213 219.5
t304 83.5h5q104 0 170 -40q1 -1 2.5 -2t2.5 -1q42 -28 64 -76q14 -29 13 -59q0 -19 -6 -38q-14 -45 -44 -70.5t-72 -33.5t-82.5 -8.5t-89.5 -0.5t-78 -5q-67 -11 -113 -49t-52 -100q-1 -8 -1 -16q0 -30 9 -65q11 -45 20 -66t34 -75q5 -11 7 -16q8 -18 21.5 -46t22.5 -46.5
t22 -47t20.5 -48t18 -48.5t14 -49t9 -50.5t3 -51.5t-3.5 -52q-14 -102 -97 -182t-200 -103q-18 -4 -56 -8q-71 -6 -108 -7h-6q-35 0 -93 10q-62 11 -125 39q-139 61 -185 143q-24 43 -24 89q0 26 7 52z" />
    <glyph glyph-name="T" unicode="T" horiz-adv-x="1562" 
d="M103 1351q5 51 33 75q26 22 62 21h6q38 -2 82 -6q26 -3 79.5 -11.5t92.5 -12.5q127 -12 380.5 -36t380.5 -36q120 -12 169 -46q58 -40 71 -109q5 -33 -3 -60q-14 -45 -56 -69.5t-91 -25.5q-22 0 -125 8q-69 5 -106 5q-19 0 -30 -1q-39 -4 -68.5 -25t-46.5 -49
t-30.5 -72.5t-20 -82t-16.5 -93.5t-18 -92q-1 -5 -12.5 -54t-14 -58.5t-13.5 -54t-15.5 -59t-16 -53.5t-19 -57.5t-19.5 -51.5t-23 -54t-25 -46.5t-29 -47.5q-39 -57 -93 -85q-27 -13 -51 -13q-26 0 -49 15q-38 24 -51 76q-9 35 -9 69q0 17 2 35q6 52 24 108q6 21 24 80.5
t27 90t25.5 88.5t25.5 93.5t21.5 86.5t18.5 85t10 72q4 31 3 56v10q-1 28 -7 47q-5 16 -12.5 28.5t-14.5 21t-20 15.5t-21.5 11t-26.5 7.5t-26.5 5t-30 4.5t-30.5 4q-8 1 -38 5t-38 5.5t-30.5 6.5t-34 10.5t-29.5 15.5t-35 23q-40 32 -68 82q-25 44 -25 84q0 5 1 11z" />
    <glyph glyph-name="U" unicode="U" horiz-adv-x="1390" 
d="M117 356q-15 61 -15 128q0 69 16 145q38 193 112.5 381.5t181.5 308.5q44 49 96 55q8 1 16 1q44 0 84 -30q52 -38 52 -121q0 -30 -7 -65q-5 -29 -18 -60t-34.5 -72.5t-27.5 -55.5q-16 -35 -51 -100t-61 -113.5t-49 -114t-26 -115.5q0 -6 -1 -12q-1 -46 21 -92
q24 -52 79 -90q40 -25 80 -25q19 -1 39 5q60 18 114 74t94 122.5t61 128.5q24 72 42.5 172.5t25.5 161t19 181.5q14 130 50 191q53 90 129 90q11 0 22 -2q85 -14 121 -139q2 -8 4 -26q3 -32 3 -63q0 -59 -10 -115q-6 -40 -21.5 -145t-25 -160.5t-30.5 -138t-47 -147.5
q-134 -329 -357 -442q-90 -45 -190 -55q-23 -2 -44 -3q-77 -1 -153 25q-98 32 -170 108q-94 100 -124 224z" />
    <glyph glyph-name="U" unicode="&#xdb;" horiz-adv-x="1390" 
d="M117 356q-15 61 -15 128q0 69 16 145q38 193 112.5 381.5t181.5 308.5q44 49 96 55q8 1 16 1q44 0 84 -30q52 -38 52 -121q0 -30 -7 -65q-5 -29 -18 -60t-34.5 -72.5t-27.5 -55.5q-16 -35 -51 -100t-61 -113.5t-49 -114t-26 -115.5q0 -6 -1 -12q-1 -46 21 -92
q24 -52 79 -90q40 -25 80 -25q19 -1 39 5q60 18 114 74t94 122.5t61 128.5q24 72 42.5 172.5t25.5 161t19 181.5q14 130 50 191q53 90 129 90q11 0 22 -2q85 -14 121 -139q2 -8 4 -26q3 -32 3 -63q0 -59 -10 -115q-6 -40 -21.5 -145t-25 -160.5t-30.5 -138t-47 -147.5
q-134 -329 -357 -442q-90 -45 -190 -55q-23 -2 -44 -3q-77 -1 -153 25q-98 32 -170 108q-94 100 -124 224z" />
    <glyph glyph-name="U" unicode="&#xda;" horiz-adv-x="1390" 
d="M117 356q-15 61 -15 128q0 69 16 145q38 193 112.5 381.5t181.5 308.5q44 49 96 55q8 1 16 1q44 0 84 -30q52 -38 52 -121q0 -30 -7 -65q-5 -29 -18 -60t-34.5 -72.5t-27.5 -55.5q-16 -35 -51 -100t-61 -113.5t-49 -114t-26 -115.5q0 -6 -1 -12q-1 -46 21 -92
q24 -52 79 -90q40 -25 80 -25q19 -1 39 5q60 18 114 74t94 122.5t61 128.5q24 72 42.5 172.5t25.5 161t19 181.5q14 130 50 191q53 90 129 90q11 0 22 -2q85 -14 121 -139q2 -8 4 -26q3 -32 3 -63q0 -59 -10 -115q-6 -40 -21.5 -145t-25 -160.5t-30.5 -138t-47 -147.5
q-134 -329 -357 -442q-90 -45 -190 -55q-23 -2 -44 -3q-77 -1 -153 25q-98 32 -170 108q-94 100 -124 224z" />
    <glyph glyph-name="U" unicode="&#xd9;" horiz-adv-x="1390" 
d="M117 356q-15 61 -15 128q0 69 16 145q38 193 112.5 381.5t181.5 308.5q44 49 96 55q8 1 16 1q44 0 84 -30q52 -38 52 -121q0 -30 -7 -65q-5 -29 -18 -60t-34.5 -72.5t-27.5 -55.5q-16 -35 -51 -100t-61 -113.5t-49 -114t-26 -115.5q0 -6 -1 -12q-1 -46 21 -92
q24 -52 79 -90q40 -25 80 -25q19 -1 39 5q60 18 114 74t94 122.5t61 128.5q24 72 42.5 172.5t25.5 161t19 181.5q14 130 50 191q53 90 129 90q11 0 22 -2q85 -14 121 -139q2 -8 4 -26q3 -32 3 -63q0 -59 -10 -115q-6 -40 -21.5 -145t-25 -160.5t-30.5 -138t-47 -147.5
q-134 -329 -357 -442q-90 -45 -190 -55q-23 -2 -44 -3q-77 -1 -153 25q-98 32 -170 108q-94 100 -124 224z" />
    <glyph glyph-name="V" unicode="V" horiz-adv-x="1388" 
d="M205 216.5q-1 17.5 0 48t2 44t3 43.5t3 37q11 171 20 642q0 16 -1 65q-1 33 -1 58q1 13 1 24q0 33 5.5 80.5t17.5 78t36 57.5t59 35q10 2 20 2q34 -1 61 -31q35 -40 54 -111.5t32.5 -164.5t16 -189t4.5 -183q1 -33 1 -63q0 -47 -2 -85q-1 -19 17 -24.5t28 10.5
q250 398 408 639q11 17 21 30.5t24.5 30.5t28 29.5t30.5 23.5t33.5 15.5t36.5 4t39 -9.5q65 -29 79 -102q3 -18 3 -36q0 -56 -32 -115q-127 -240 -243 -397q-226 -304 -334 -432l-49 -63t-69 -83t-70 -67q-44 -40 -86 -52q-21 -6 -42 -6q-20 0 -40 6q-21 7 -38.5 19.5
t-29.5 26t-20.5 35.5t-14 39t-8.5 45t-4 45.5z" />
    <glyph glyph-name="W" unicode="W" horiz-adv-x="2168" 
d="M102 380q2 56 5 99t13 100t17.5 91.5t18.5 83.5q147 628 317 628h6q15 -1 28 -6q29 -11 46.5 -33.5t21 -53.5t1 -62.5t-13 -71t-19.5 -68t-21.5 -63.5t-16.5 -49q-29 -95 -46.5 -160t-31.5 -163q-8 -57 -8 -106q0 -34 4 -64q11 -77 59.5 -129t112.5 -54q3 0 5 -1
q62 0 126 59q56 56 103.5 132t77.5 143t59.5 166t44 158.5t37.5 162.5q35 157 75 222q47 75 112 75q20 0 43 -7q46 -16 70 -61q23 -44 24 -103q0 -59 -8 -109q-7 -46 -20 -96q-10 -40 -47 -130.5t-67 -173.5q-32 -83 -54 -172q-14 -55 -13 -102q0 -29 5 -55q14 -68 70 -97
q25 -11 50 -11q18 0 36 6q44 14 88 57t83 96.5t73 115t57 111.5t35 85q30 89 58.5 265t53.5 255q18 59 50 96q32 36 68 44q13 3 26 3q22 0 44 -8q34 -13 61.5 -55t37.5 -103q7 -31 7 -70q0 -19 -2 -39q-6 -62 -15.5 -114t-29.5 -115t-38 -111.5t-40 -104.5l-4.5 -10.5
t-3.5 -9t-4 -10.5q-121 -308 -280 -475q-77 -81 -169 -131q-94 -50 -188 -65q-30 -5 -58 -5q-66 0 -130 23q-94 33 -165 115q-21 23 -52.5 25.5t-54.5 -18.5q-73 -67 -181 -109t-216 -43h-4q-105 0 -188 50q-39 25 -67 61t-43 80.5t-23 88.5q-7 37 -8 83v17z" />
    <glyph glyph-name="X" unicode="X" horiz-adv-x="1650" 
d="M104.5 189q7.5 32 19 56.5t32 49t35 38.5t28.5 25q52 38 105.5 81t119.5 101.5t109.5 113t48.5 89.5q3 25 -2 50.5t-19.5 55t-27 50t-37 58t-35.5 55.5q-83 134 -105 207q-6 19 -6 46.5t7 59.5t31.5 60t63.5 41q27 11 51.5 8t44 -10t37.5 -25t31.5 -36.5t26.5 -44.5
t23 -50t20 -52t17.5 -50.5t15.5 -45.5t15 -38q1 -2 9.5 -21.5t12.5 -28.5t13.5 -27.5t17.5 -28.5t18.5 -22t22 -18t23.5 -7q20 -1 50 24t51.5 53t52 70.5t38.5 52.5q3 4 20.5 26.5t22.5 29t22 27.5t25 30t24.5 28t26.5 28.5t26 25t28.5 25t27.5 20.5t30 19q40 25 85 25
q12 0 23 -2q58 -8 98 -58q7 -8 11 -17q15 -28 15 -58q0 -37 -22 -77q-21 -40 -79 -91l-316 -288q-93 -83 -93 -145q0 -41 49 -112l133 -197q70 -104 84 -172q4 -20 4 -39q0 -29 -8 -57q-14 -48 -54 -76q-34 -24 -79 -24t-89.5 24t-73.5 64q-32 44 -67 143q-13 38 -37 94
q-22 48 -58 84.5t-80 36.5q-16 0 -32.5 -5t-28.5 -11t-30 -19.5t-25.5 -20t-26.5 -24t-23 -20.5q-37 -34 -96 -110.5t-66 -84.5q-26 -31 -42 -48.5t-47 -41t-58 -28.5q-15 -3 -31 -3q-39 0 -78 18q-54 26 -70 80q-11 29 -3.5 61z" />
    <glyph glyph-name="Y" unicode="Y" horiz-adv-x="1347" 
d="M144 1295q6 53 34.5 89t71.5 46q19 5 38 5q67 0 128 -62q81 -81 191 -355q18 -47 37 -89q20 -46 37 -46q16 0 51 64.5t56 116.5q2 5 17 41q12 27 24 57q21 51 34.5 79.5t43.5 67.5t67 61q46 28 96 32h13q42 0 78 -18q44 -22 65 -62q14 -30 14 -63q0 -13 -2 -26
q-19 -110 -163 -289q-48 -61 -63 -81q-165 -230 -371 -577q-39 -65 -60 -98t-63.5 -79.5t-87.5 -73.5q-58 -35 -121 -35q-32 0 -58 10q-79 29 -92 114q-4 28 2.5 56t15.5 47.5t31 46.5t34.5 40.5t40.5 41.5q45 45 64 68q50 60 63 144q4 28 4 54q0 55 -18 105q-19 58 -98 180
q-64 99 -113 208q-42 94 -42 159q0 11 1 21z" />
    <glyph glyph-name="Z" unicode="Z" horiz-adv-x="1437" 
d="M103.5 152.5q-1.5 32.5 7.5 57.5t33.5 56.5t43.5 50.5t51 48.5t44 41.5l335 335q84 83 169 166q3 3 23 22t27 26t22 25.5t20.5 31t10 30t1.5 34.5q-3 18 -17 31t-30.5 19.5t-43.5 10t-43.5 4t-44 0.5h-31.5h-67h-44h-36q-32 0 -78.5 6.5t-77 18.5t-57.5 38t-37 63
q-5 19 -5 36q0 44 33 81q32 36 84 44q32 5 72 5q25 0 52 -2q125 -9 403 -28q8 -1 55.5 -3.5t61.5 -4t53 -7.5t60 -13t49.5 -20t51.5 -31q36 -27 52 -63q14 -32 14 -64v-8q-2 -36 -19 -78.5t-40 -80t-57.5 -81.5t-63.5 -77.5t-64 -71.5q-14 -16 -21 -23q-38 -42 -115 -113
t-132 -123q-56 -51 -96 -106q-33 -45 -33 -75q0 -7 2 -12q3 -12 12 -20.5t24 -12.5t28 -6.5t33 -2.5t31 0.5t30 2.5t22 2q116 8 200 7q72 0 122 -5q80 -8 116 -40q30 -28 35 -73q1 -9 1 -18q0 -35 -16 -63q-11 -21 -30 -40q-35 -35 -91 -52t-97 -19q-18 -1 -43 -1
q-31 0 -73 2q-54 2 -82 1h-18q-77 -2 -232.5 -5t-232.5 -5q-20 -2 -42 -2q-18 -1 -38 1q-44 2 -82.5 8t-74.5 27t-58 55q-20 30 -21.5 62.5z" />
    <glyph glyph-name="a" unicode="a" horiz-adv-x="1699" 
d="M206 123q2 14 2 22q5 67 22 103q85 181 212 441l-113 -17q-8 -1 -16 -1q-40 0 -70 34q-26 31 -26 70q0 13 3 26q21 105 97 157q58 40 137 41q24 0 50 -4q11 -1 20 -1q30 0 46 14q22 18 58 96q23 50 75 138q18 30 32 56q19 34 53 46q15 5 31 5q19 0 37 -8l46 -21
q27 -11 45 -39q138 106 258 148q20 7 43 7q48 0 107 -33q97 -57 120 -136q39 -138 39 -275q0 -51 -5 -102l-2 -25q-5 -50 -5 -71q0 -11 1 -14q6 -6 26 -13q43 -14 60 -58q9 -23 9 -45t-9 -43q-5 -12 -5 -13q-28 -85 -93 -92q-54 -7 -76 -38.5t-49 -131.5q-18 -64 -26 -89
q-2 -5 -4.5 -15l-3.5 -14q-7 -27 -12 -42.5t-16.5 -41.5t-29.5 -45.5t-42 -33.5q-37 -21 -82 -21q-43 0 -92 19q-40 16 -57 57q-9 23 -9 45q0 20 7 39l113 306q-3 1 -9 4t-9 4q-218 87 -297 115q-78 -127 -193 -328q-14 -25 -43 -75.5t-44 -75.5l-5 -9q-38 -65 -72 -92
q-29 -22 -85 -40q-4 -1 -10.5 -3.5t-8.5 -3.5q-16 -6 -33 -6q-35 0 -63 25q-35 31 -35 79q0 9 1 19zM966 902q8 -4 25.5 -11.5t26.5 -11.5q146 -66 188 -66q16 29 42 214q2 19 -1 43q-6 40 -15 60q-16 -2 -49 -18q-118 -55 -217 -210z" />
    <glyph glyph-name="a" unicode="&#xe4;" horiz-adv-x="1699" 
d="M206 123q2 14 2 22q5 67 22 103q85 181 212 441l-113 -17q-8 -1 -16 -1q-40 0 -70 34q-26 31 -26 70q0 13 3 26q21 105 97 157q58 40 137 41q24 0 50 -4q11 -1 20 -1q30 0 46 14q22 18 58 96q23 50 75 138q18 30 32 56q19 34 53 46q15 5 31 5q19 0 37 -8l46 -21
q27 -11 45 -39q138 106 258 148q20 7 43 7q48 0 107 -33q97 -57 120 -136q39 -138 39 -275q0 -51 -5 -102l-2 -25q-5 -50 -5 -71q0 -11 1 -14q6 -6 26 -13q43 -14 60 -58q9 -23 9 -45t-9 -43q-5 -12 -5 -13q-28 -85 -93 -92q-54 -7 -76 -38.5t-49 -131.5q-18 -64 -26 -89
q-2 -5 -4.5 -15l-3.5 -14q-7 -27 -12 -42.5t-16.5 -41.5t-29.5 -45.5t-42 -33.5q-37 -21 -82 -21q-43 0 -92 19q-40 16 -57 57q-9 23 -9 45q0 20 7 39l113 306q-3 1 -9 4t-9 4q-218 87 -297 115q-78 -127 -193 -328q-14 -25 -43 -75.5t-44 -75.5l-5 -9q-38 -65 -72 -92
q-29 -22 -85 -40q-4 -1 -10.5 -3.5t-8.5 -3.5q-16 -6 -33 -6q-35 0 -63 25q-35 31 -35 79q0 9 1 19zM966 902q8 -4 25.5 -11.5t26.5 -11.5q146 -66 188 -66q16 29 42 214q2 19 -1 43q-6 40 -15 60q-16 -2 -49 -18q-118 -55 -217 -210z" />
    <glyph glyph-name="a" unicode="&#xe3;" horiz-adv-x="1699" 
d="M206 123q2 14 2 22q5 67 22 103q85 181 212 441l-113 -17q-8 -1 -16 -1q-40 0 -70 34q-26 31 -26 70q0 13 3 26q21 105 97 157q58 40 137 41q24 0 50 -4q11 -1 20 -1q30 0 46 14q22 18 58 96q23 50 75 138q18 30 32 56q19 34 53 46q15 5 31 5q19 0 37 -8l46 -21
q27 -11 45 -39q138 106 258 148q20 7 43 7q48 0 107 -33q97 -57 120 -136q39 -138 39 -275q0 -51 -5 -102l-2 -25q-5 -50 -5 -71q0 -11 1 -14q6 -6 26 -13q43 -14 60 -58q9 -23 9 -45t-9 -43q-5 -12 -5 -13q-28 -85 -93 -92q-54 -7 -76 -38.5t-49 -131.5q-18 -64 -26 -89
q-2 -5 -4.5 -15l-3.5 -14q-7 -27 -12 -42.5t-16.5 -41.5t-29.5 -45.5t-42 -33.5q-37 -21 -82 -21q-43 0 -92 19q-40 16 -57 57q-9 23 -9 45q0 20 7 39l113 306q-3 1 -9 4t-9 4q-218 87 -297 115q-78 -127 -193 -328q-14 -25 -43 -75.5t-44 -75.5l-5 -9q-38 -65 -72 -92
q-29 -22 -85 -40q-4 -1 -10.5 -3.5t-8.5 -3.5q-16 -6 -33 -6q-35 0 -63 25q-35 31 -35 79q0 9 1 19zM966 902q8 -4 25.5 -11.5t26.5 -11.5q146 -66 188 -66q16 29 42 214q2 19 -1 43q-6 40 -15 60q-16 -2 -49 -18q-118 -55 -217 -210z" />
    <glyph glyph-name="a" unicode="&#xe2;" horiz-adv-x="1699" 
d="M206 123q2 14 2 22q5 67 22 103q85 181 212 441l-113 -17q-8 -1 -16 -1q-40 0 -70 34q-26 31 -26 70q0 13 3 26q21 105 97 157q58 40 137 41q24 0 50 -4q11 -1 20 -1q30 0 46 14q22 18 58 96q23 50 75 138q18 30 32 56q19 34 53 46q15 5 31 5q19 0 37 -8l46 -21
q27 -11 45 -39q138 106 258 148q20 7 43 7q48 0 107 -33q97 -57 120 -136q39 -138 39 -275q0 -51 -5 -102l-2 -25q-5 -50 -5 -71q0 -11 1 -14q6 -6 26 -13q43 -14 60 -58q9 -23 9 -45t-9 -43q-5 -12 -5 -13q-28 -85 -93 -92q-54 -7 -76 -38.5t-49 -131.5q-18 -64 -26 -89
q-2 -5 -4.5 -15l-3.5 -14q-7 -27 -12 -42.5t-16.5 -41.5t-29.5 -45.5t-42 -33.5q-37 -21 -82 -21q-43 0 -92 19q-40 16 -57 57q-9 23 -9 45q0 20 7 39l113 306q-3 1 -9 4t-9 4q-218 87 -297 115q-78 -127 -193 -328q-14 -25 -43 -75.5t-44 -75.5l-5 -9q-38 -65 -72 -92
q-29 -22 -85 -40q-4 -1 -10.5 -3.5t-8.5 -3.5q-16 -6 -33 -6q-35 0 -63 25q-35 31 -35 79q0 9 1 19zM966 902q8 -4 25.5 -11.5t26.5 -11.5q146 -66 188 -66q16 29 42 214q2 19 -1 43q-6 40 -15 60q-16 -2 -49 -18q-118 -55 -217 -210z" />
    <glyph glyph-name="a" unicode="&#xe1;" horiz-adv-x="1699" 
d="M206 123q2 14 2 22q5 67 22 103q85 181 212 441l-113 -17q-8 -1 -16 -1q-40 0 -70 34q-26 31 -26 70q0 13 3 26q21 105 97 157q58 40 137 41q24 0 50 -4q11 -1 20 -1q30 0 46 14q22 18 58 96q23 50 75 138q18 30 32 56q19 34 53 46q15 5 31 5q19 0 37 -8l46 -21
q27 -11 45 -39q138 106 258 148q20 7 43 7q48 0 107 -33q97 -57 120 -136q39 -138 39 -275q0 -51 -5 -102l-2 -25q-5 -50 -5 -71q0 -11 1 -14q6 -6 26 -13q43 -14 60 -58q9 -23 9 -45t-9 -43q-5 -12 -5 -13q-28 -85 -93 -92q-54 -7 -76 -38.5t-49 -131.5q-18 -64 -26 -89
q-2 -5 -4.5 -15l-3.5 -14q-7 -27 -12 -42.5t-16.5 -41.5t-29.5 -45.5t-42 -33.5q-37 -21 -82 -21q-43 0 -92 19q-40 16 -57 57q-9 23 -9 45q0 20 7 39l113 306q-3 1 -9 4t-9 4q-218 87 -297 115q-78 -127 -193 -328q-14 -25 -43 -75.5t-44 -75.5l-5 -9q-38 -65 -72 -92
q-29 -22 -85 -40q-4 -1 -10.5 -3.5t-8.5 -3.5q-16 -6 -33 -6q-35 0 -63 25q-35 31 -35 79q0 9 1 19zM966 902q8 -4 25.5 -11.5t26.5 -11.5q146 -66 188 -66q16 29 42 214q2 19 -1 43q-6 40 -15 60q-16 -2 -49 -18q-118 -55 -217 -210z" />
    <glyph glyph-name="a" unicode="&#xe0;" horiz-adv-x="1699" 
d="M206 123q2 14 2 22q5 67 22 103q85 181 212 441l-113 -17q-8 -1 -16 -1q-40 0 -70 34q-26 31 -26 70q0 13 3 26q21 105 97 157q58 40 137 41q24 0 50 -4q11 -1 20 -1q30 0 46 14q22 18 58 96q23 50 75 138q18 30 32 56q19 34 53 46q15 5 31 5q19 0 37 -8l46 -21
q27 -11 45 -39q138 106 258 148q20 7 43 7q48 0 107 -33q97 -57 120 -136q39 -138 39 -275q0 -51 -5 -102l-2 -25q-5 -50 -5 -71q0 -11 1 -14q6 -6 26 -13q43 -14 60 -58q9 -23 9 -45t-9 -43q-5 -12 -5 -13q-28 -85 -93 -92q-54 -7 -76 -38.5t-49 -131.5q-18 -64 -26 -89
q-2 -5 -4.5 -15l-3.5 -14q-7 -27 -12 -42.5t-16.5 -41.5t-29.5 -45.5t-42 -33.5q-37 -21 -82 -21q-43 0 -92 19q-40 16 -57 57q-9 23 -9 45q0 20 7 39l113 306q-3 1 -9 4t-9 4q-218 87 -297 115q-78 -127 -193 -328q-14 -25 -43 -75.5t-44 -75.5l-5 -9q-38 -65 -72 -92
q-29 -22 -85 -40q-4 -1 -10.5 -3.5t-8.5 -3.5q-16 -6 -33 -6q-35 0 -63 25q-35 31 -35 79q0 9 1 19zM966 902q8 -4 25.5 -11.5t26.5 -11.5q146 -66 188 -66q16 29 42 214q2 19 -1 43q-6 40 -15 60q-16 -2 -49 -18q-118 -55 -217 -210z" />
    <glyph glyph-name="b" unicode="b" horiz-adv-x="1503" 
d="M104 174q-3 15 -3 30q0 17 4 37q7 37 13.5 60.5t19.5 58.5q5 12 5 13l147 425q23 67 36 102t41 100t52.5 107.5t62 92.5t79.5 88q95 86 219 122q80 24 162 24q44 0 88 -7q88 -14 153.5 -56t96.5 -104q28 -55 28 -118q0 -58 -24 -122q-25 -68 -84 -153q38 -25 72 -59
q68 -69 100 -153q29 -76 29 -161.5t-30 -161.5q-45 -115 -148 -198.5t-242 -117.5q-95 -23 -200 -23q-122 0 -293 35q-123 25 -176 83q-38 -25 -81 -30q-8 -1 -16 -1q-52 0 -84 35q-21 22 -27 52zM444 382q54 -10 136 -59l12 -7q72 -42 154 -53q28 -4 55 -4q54 0 108 15
q30 8 57 21q107 50 137 145q8 24 8 48q0 42 -24 84q-28 49 -75 60q-11 3 -25 3q-44 0 -113 -27l-16 -6q-101 -40 -159 -40h-3q-54 1 -102 32t-62 83q-14 -54 -21 -80l-6 -21q-9 -35 -30 -96q-26 -78 -31 -98zM579 825q35 35 86 53q35 12 103 22q58 8 85 16q50 17 90.5 55.5
t59.5 88.5q11 26 11 46q0 18 -9 31q-17 25 -66 25q-20 0 -29 -2q-101 -17 -188.5 -104.5t-140.5 -224.5q-1 -1 -1 -3t-1 -3z" />
    <glyph glyph-name="c" unicode="c" horiz-adv-x="1624" 
d="M116 776q30 130 114 247t211 196q203 127 448 186q127 31 243 31q108 0 207 -27q61 -16 107 -50q45 -35 67 -87q9 -23 9 -47q0 -33 -16 -70q-15 -36 -40.5 -58t-51 -31t-62.5 -10h-14q-28 0 -50 3q-28 4 -69 10t-63 8q-40 4 -80 4l-288 -51q-184 -65 -305 -199
q-53 -60 -69 -122q-7 -27 -7 -53q0 -33 11 -64q20 -55 65.5 -102t112.5 -82q157 -82 318 -82q115 0 233 42q114 40 189 40q141 0 143 -142v-6q1 -48 -15 -87q-16 -41 -46 -67.5t-70 -46t-84.5 -29.5t-92.5 -16t-92.5 -8.5t-86.5 -3.5q-28 -1 -41 -1q-29 -1 -57 -1
q-187 0 -339 46q-175 54 -300 201q-101 119 -135 259q-18 75 -18 147q0 62 14 123z" />
    <glyph glyph-name="d" unicode="d" horiz-adv-x="1544" 
d="M102 301q-2 18 4 43.5t10.5 43t14.5 42.5t17.5 41.5t18.5 40.5t17 40q85 206 198 437q8 16 35.5 75t42 86.5t40.5 73t53 79t57 60.5q42 39 90 51q30 8 59 9q16 0 31 -3q42 -7 99 -30q4 -2 8 -1q27 7 85 13q19 2 40 2q45 0 101 -8q83 -12 125 -48q86 -74 125 -179.5
t59 -251.5q12 -85 12 -163q0 -206 -84 -361q-54 -99 -141.5 -171.5t-195.5 -116.5q-150 -62 -424 -94q-63 -11 -140 -11h-19q-88 2 -154 30q-67 28 -116 89.5t-64 137.5q-2 26 -4 44zM438 361q-7 -17 2 -32t25 -15q17 0 33 -1q108 1 192 13q97 14 178 59q268 152 283 358
q4 25 4 59q1 20 -1 43q-4 62 -12.5 121.5t-40 108t-80.5 60.5q-15 4 -30 4q-30 -1 -61 -15q-47 -22 -80.5 -50.5t-78 -91t-62 -92t-54.5 -93.5q-20 -34 -28 -48q-92 -152 -189 -388z" />
    <glyph glyph-name="e" unicode="e" horiz-adv-x="1492" 
d="M153 151q-7 22 -7 51q0 66 39 166q51 129 103 259q166 411 235 626q10 32 28 58t43 44t51 31.5t61 21.5t63.5 13.5t68 7.5t65.5 3t65 1t57 1q0 1 33 0h33q287 -3 300 -153q1 -7 1 -15q0 -58 -43 -105q-48 -53 -113 -67q-31 -7 -77 -7q-17 0 -99 5t-94 5h-15
q-66 -2 -146 -29t-100 -68q-15 -30 7 -60q13 -18 35 -28t39 -12t48 -3q78 -2 106 -26q46 -39 64 -103q7 -26 7 -50q0 -37 -16 -72q-43 -82 -169 -82q-3 0 -8.5 0.5t-7.5 0.5l-51 3q-62 5 -75 5q-58 0 -98 -17q-42 -17 -78 -67q-39 -53 -39 -98q0 -40 34 -58q54 -29 133 -29
q66 0 214 33q118 26 164 30q18 1 48 1q131 0 170 -76q15 -32 15 -67q1 -23 -7 -49q-18 -62 -63 -99q-68 -55 -211 -67q-114 -10 -250 -10q-173 0 -341 19q-186 22 -222 132z" />
    <glyph glyph-name="e" unicode="&#xea;" horiz-adv-x="1492" 
d="M153 151q-7 22 -7 51q0 66 39 166q51 129 103 259q166 411 235 626q10 32 28 58t43 44t51 31.5t61 21.5t63.5 13.5t68 7.5t65.5 3t65 1t57 1q0 1 33 0h33q287 -3 300 -153q1 -7 1 -15q0 -58 -43 -105q-48 -53 -113 -67q-31 -7 -77 -7q-17 0 -99 5t-94 5h-15
q-66 -2 -146 -29t-100 -68q-15 -30 7 -60q13 -18 35 -28t39 -12t48 -3q78 -2 106 -26q46 -39 64 -103q7 -26 7 -50q0 -37 -16 -72q-43 -82 -169 -82q-3 0 -8.5 0.5t-7.5 0.5l-51 3q-62 5 -75 5q-58 0 -98 -17q-42 -17 -78 -67q-39 -53 -39 -98q0 -40 34 -58q54 -29 133 -29
q66 0 214 33q118 26 164 30q18 1 48 1q131 0 170 -76q15 -32 15 -67q1 -23 -7 -49q-18 -62 -63 -99q-68 -55 -211 -67q-114 -10 -250 -10q-173 0 -341 19q-186 22 -222 132z" />
    <glyph glyph-name="e" unicode="&#xe9;" horiz-adv-x="1492" 
d="M153 151q-7 22 -7 51q0 66 39 166q51 129 103 259q166 411 235 626q10 32 28 58t43 44t51 31.5t61 21.5t63.5 13.5t68 7.5t65.5 3t65 1t57 1q0 1 33 0h33q287 -3 300 -153q1 -7 1 -15q0 -58 -43 -105q-48 -53 -113 -67q-31 -7 -77 -7q-17 0 -99 5t-94 5h-15
q-66 -2 -146 -29t-100 -68q-15 -30 7 -60q13 -18 35 -28t39 -12t48 -3q78 -2 106 -26q46 -39 64 -103q7 -26 7 -50q0 -37 -16 -72q-43 -82 -169 -82q-3 0 -8.5 0.5t-7.5 0.5l-51 3q-62 5 -75 5q-58 0 -98 -17q-42 -17 -78 -67q-39 -53 -39 -98q0 -40 34 -58q54 -29 133 -29
q66 0 214 33q118 26 164 30q18 1 48 1q131 0 170 -76q15 -32 15 -67q1 -23 -7 -49q-18 -62 -63 -99q-68 -55 -211 -67q-114 -10 -250 -10q-173 0 -341 19q-186 22 -222 132z" />
    <glyph glyph-name="e" unicode="&#xe8;" horiz-adv-x="1492" 
d="M153 151q-7 22 -7 51q0 66 39 166q51 129 103 259q166 411 235 626q10 32 28 58t43 44t51 31.5t61 21.5t63.5 13.5t68 7.5t65.5 3t65 1t57 1q0 1 33 0h33q287 -3 300 -153q1 -7 1 -15q0 -58 -43 -105q-48 -53 -113 -67q-31 -7 -77 -7q-17 0 -99 5t-94 5h-15
q-66 -2 -146 -29t-100 -68q-15 -30 7 -60q13 -18 35 -28t39 -12t48 -3q78 -2 106 -26q46 -39 64 -103q7 -26 7 -50q0 -37 -16 -72q-43 -82 -169 -82q-3 0 -8.5 0.5t-7.5 0.5l-51 3q-62 5 -75 5q-58 0 -98 -17q-42 -17 -78 -67q-39 -53 -39 -98q0 -40 34 -58q54 -29 133 -29
q66 0 214 33q118 26 164 30q18 1 48 1q131 0 170 -76q15 -32 15 -67q1 -23 -7 -49q-18 -62 -63 -99q-68 -55 -211 -67q-114 -10 -250 -10q-173 0 -341 19q-186 22 -222 132z" />
    <glyph glyph-name="f" unicode="f" horiz-adv-x="1591" 
d="M103 132v15q0 34 7 67q8 40 24.5 90t32.5 88t35 83t27 68q81 226 165 433q9 21 38.5 100t47 120t54 95.5t77.5 84.5q35 25 79 39t96 17q38 2 71 2h21q42 -1 101 -5t87 -5q21 0 75 2q43 2 77 2h16q40 -1 88 -7t84.5 -25t57.5 -51q26 -44 26 -90q0 -36 -16 -73
q-35 -85 -114 -121q-50 -22 -112 -23h-5q-60 0 -111 13q-52 13 -116 19q-22 1 -43 1q-38 0 -71 -6q-93 -21 -150 -85q-33 -36 -33 -63q0 -9 5 -18q12 -21 48.5 -21t97.5 21q7 2 14 5q44 17 78 23q19 3 38 3q14 0 29 -2q34 -4 63 -27.5t53 -66.5q29 -51 29 -101q0 -28 -8 -56
q-25 -79 -108 -113q-34 -14 -76 -16q-11 -1 -22 -1q-28 0 -52 4q-32 5 -76.5 11.5t-75.5 6.5q-103 0 -163.5 -53.5t-103.5 -158.5q-10 -25 -25.5 -72.5t-28.5 -82.5t-32.5 -74t-48 -68t-65.5 -45q-33 -16 -65 -16q-16 0 -31 4q-47 11 -72 57q-16 30 -18 72z" />
    <glyph glyph-name="g" unicode="g" horiz-adv-x="1505" 
d="M102 532q2 118 47.5 237t111 218t143.5 174q163 156 370 227q139 49 277 49q68 0 136 -12q113 -19 167 -74q1 -1 2.5 -3t2.5 -3q33 -37 43 -87q2 -14 2 -29q0 -33 -15 -64q-13 -24 -34 -38.5t-44 -20.5t-52 -6t-54 3t-55 7q-8 1 -12 2q-41 6 -82 6q-126 0 -250 -56
q-163 -73 -273 -220q-6 -8 -2 -16.5t14 -9.5q22 -2 45 -2q31 0 64 4q56 7 133 24t109 22q49 8 96 8q55 0 106 -11q96 -21 156 -95q59 -73 64 -184q1 -13 1 -25q0 -97 -38 -176q-71 -158 -265 -269q-194 -113 -377 -113q-48 0 -95 8q-125 20 -231.5 97t-162.5 196
q-48 110 -48 224v8zM413 577q-11 -31 -11 -60q0 -49 31 -93q62 -86 196 -88h4q92 0 179 42q89 43 154 120q8 9 1.5 19.5t-18.5 7.5q-136 -38 -226 -38q-14 0 -27 1q-72 5 -150 52q-41 23 -83 53q-13 9 -29 4t-21 -20z" />
    <glyph glyph-name="h" unicode="h" horiz-adv-x="1554" 
d="M112 236q138 431 315 909q5 13 19 58.5t26 76.5t31.5 69t46 59.5t57.5 24.5q13 1 24 1q77 0 117 -45q20 -23 28 -53q4 -16 5 -35q0 -14 -3 -29q-6 -34 -14 -60.5t-22.5 -64t-19.5 -54.5q-1 -5 -7.5 -25.5t-9 -28.5t-7.5 -27.5t-6 -30.5t-1 -28t3.5 -28.5t10 -24
t17.5 -22.5q25 -22 48 -30q83 -28 139 -28h4q60 1 102 60q27 38 49 88.5t45.5 120t33.5 95.5q3 8 11.5 30.5t13 34t13 29t18 31.5t20.5 25q29 30 76 32h10q40 0 70 -18q57 -32 70 -87q6 -25 7 -51.5t-5.5 -58t-11 -50.5t-16.5 -57t-15 -49q-30 -102 -66.5 -215.5t-83.5 -255
t-71 -215.5q-16 -51 -31 -88.5t-40 -83t-59.5 -78t-76.5 -48.5q-28 -11 -54 -11q-20 0 -40 6q-44 14 -70 60q-16 27 -20 59q-1 9 -1 20q1 25 7 53q10 40 16 60.5t22 64.5q4 10 11.5 29t11.5 31t10.5 32.5t8 32.5t3.5 32.5t-3 31.5q-6 28 -45.5 49t-87.5 29q-35 6 -71 7
l-25 -1q-48 -3 -71 -19q-64 -45 -102 -192q-5 -14 -20 -62t-24 -73.5t-24.5 -62t-31.5 -62.5q-28 -45 -75 -71q-35 -20 -73 -20q-12 0 -26 2q-52 8 -80 62q-20 37 -20 78q0 29 10 60z" />
    <glyph glyph-name="i" unicode="i" horiz-adv-x="854" 
d="M104 233q2 47 17 105.5t28.5 107.5t35.5 109.5t36 97.5t33.5 85.5t24.5 61.5q6 17 27 80q97 298 173 424q79 130 153 130q29 0 57 -20q22 -16 36 -38t20.5 -43.5t6.5 -51.5t-2.5 -52t-11 -56.5t-14.5 -52.5l-17 -51t-14 -43q-48 -150 -146 -450q-6 -19 -22 -81
q-11 -41 -17.5 -64t-20 -69.5t-24 -76t-27 -72.5t-32 -70t-35.5 -58.5t-41 -47.5t-45 -28t-51 -9t-56 18q-31 17 -49 48q-17 32 -21 76q-2 26 -3 52q0 19 1 39z" />
    <glyph glyph-name="i" unicode="&#xee;" horiz-adv-x="854" 
d="M104 233q2 47 17 105.5t28.5 107.5t35.5 109.5t36 97.5t33.5 85.5t24.5 61.5q6 17 27 80q97 298 173 424q79 130 153 130q29 0 57 -20q22 -16 36 -38t20.5 -43.5t6.5 -51.5t-2.5 -52t-11 -56.5t-14.5 -52.5l-17 -51t-14 -43q-48 -150 -146 -450q-6 -19 -22 -81
q-11 -41 -17.5 -64t-20 -69.5t-24 -76t-27 -72.5t-32 -70t-35.5 -58.5t-41 -47.5t-45 -28t-51 -9t-56 18q-31 17 -49 48q-17 32 -21 76q-2 26 -3 52q0 19 1 39z" />
    <glyph glyph-name="i" unicode="&#xed;" horiz-adv-x="854" 
d="M104 233q2 47 17 105.5t28.5 107.5t35.5 109.5t36 97.5t33.5 85.5t24.5 61.5q6 17 27 80q97 298 173 424q79 130 153 130q29 0 57 -20q22 -16 36 -38t20.5 -43.5t6.5 -51.5t-2.5 -52t-11 -56.5t-14.5 -52.5l-17 -51t-14 -43q-48 -150 -146 -450q-6 -19 -22 -81
q-11 -41 -17.5 -64t-20 -69.5t-24 -76t-27 -72.5t-32 -70t-35.5 -58.5t-41 -47.5t-45 -28t-51 -9t-56 18q-31 17 -49 48q-17 32 -21 76q-2 26 -3 52q0 19 1 39z" />
    <glyph glyph-name="i" unicode="&#xec;" horiz-adv-x="854" 
d="M104 233q2 47 17 105.5t28.5 107.5t35.5 109.5t36 97.5t33.5 85.5t24.5 61.5q6 17 27 80q97 298 173 424q79 130 153 130q29 0 57 -20q22 -16 36 -38t20.5 -43.5t6.5 -51.5t-2.5 -52t-11 -56.5t-14.5 -52.5l-17 -51t-14 -43q-48 -150 -146 -450q-6 -19 -22 -81
q-11 -41 -17.5 -64t-20 -69.5t-24 -76t-27 -72.5t-32 -70t-35.5 -58.5t-41 -47.5t-45 -28t-51 -9t-56 18q-31 17 -49 48q-17 32 -21 76q-2 26 -3 52q0 19 1 39z" />
    <glyph glyph-name="j" unicode="j" horiz-adv-x="1583" 
d="M107 618q9 66 46.5 113t100.5 50h8q58 0 96 -41q40 -45 51 -110q2 -9 6 -36.5t7 -44.5t9 -44.5t14 -45.5t18 -36.5t24.5 -29.5t32.5 -13q24 -3 48 7.5t40 25.5t35 43t27 43t22 42q21 43 36.5 98.5t21 88t16.5 105.5q9 60 9 110q0 121 -51 183q-18 22 -46.5 30.5t-54 7.5
t-55.5 5t-50 24q-35 36 -35 79q0 14 3 29q16 60 71 92q41 24 112 33q64 9 103 9h8q40 -1 120 -5q155 -7 315 -40q166 -35 235 -119q31 -37 31 -79q0 -20 -7 -40q-16 -48 -56 -64q-31 -12 -65 -12q-11 0 -23 2l-96 10q-10 1 -20 1q-37 0 -68 -14q-40 -18 -56 -69
q-15 -44 -18 -71q-3 -23 -14 -120.5t-17.5 -137t-20.5 -114.5t-34 -132.5t-48 -112.5q-68 -133 -178.5 -224t-245.5 -94h-5q-66 0 -129 28q-66 29 -117 81q-52 53 -82 104t-48 119q-30 116 -30 214q0 37 4 72z" />
    <glyph glyph-name="k" unicode="k" horiz-adv-x="1474" 
d="M123 106q-21 56 -21 124t21 149q15 59 35.5 118.5t55 148t44.5 115.5q10 28 69.5 195.5t96.5 254.5q80 188 159 226q22 10 42 10q30 1 59 -21q48 -36 60 -99q7 -17 2.5 -48t-7.5 -49t-14.5 -49.5t-19 -48.5t-21 -46t-19.5 -43q17 5 35.5 13t40.5 20.5t38.5 22.5
t42.5 27.5t37.5 25.5t39.5 27.5t33 23.5q9 6 61.5 45t82 58.5t75.5 41.5t80 24h11q56 0 94 -36q35 -35 35 -88q0 -9 -1 -19q-3 -29 -17 -57.5t-32 -53t-48.5 -51t-55 -45.5t-65.5 -43.5t-65.5 -38t-69.5 -35t-62.5 -29.5t-59 -26t-46.5 -20t-27 -11t-38.5 -16.5t-36.5 -19
t-32 -24.5t-13 -27q-2 -21 6.5 -41t32.5 -45t41 -40t59 -48t59 -47q8 -7 34 -27.5t46.5 -37t51.5 -43.5t54.5 -50.5t49.5 -54t41.5 -57t26 -57t8.5 -57t-17.5 -54t-45.5 -50.5q-23 -17 -48 -22.5t-52 4t-48.5 19.5t-51 34.5t-44.5 38t-43.5 42l-34.5 34.5q-52 50 -68.5 63
t-69.5 64q-11 11 -80 70.5t-114 103.5q-12 -36 -31 -91.5t-64 -162t-73 -134.5q-33 -34 -73 -46q-17 -5 -35 -6q-21 0 -41 9q-36 16 -55 63z" />
    <glyph glyph-name="l" unicode="l" horiz-adv-x="1331" 
d="M104 144q-4 19 -3 40q1 24 5 52q8 50 17.5 87t28 93t23.5 75q29 102 101 281.5t91 233.5q15 43 24 67t31 77.5t40 87t46 77.5t54 68t60 40q26 12 51 12q8 0 16 -1q100 -14 100 -147q0 -137 -107 -402q-3 -8 -4 -11q-12 -30 -46.5 -97t-61.5 -125.5t-50 -122.5
q-19 -52 -19 -94q-1 -9 1 -19q6 -50 43 -75q31 -21 82 -23h21q42 0 88 6l116 16q40 6 83 6q21 0 41 -1q64 -4 111 -26q83 -37 103 -113q5 -18 5 -35q0 -57 -51 -109q-16 -16 -38 -27t-38 -16.5t-47.5 -9t-42.5 -4t-49 -0.5h-43q-155 -2 -469 -4q-8 0 -47 -0.5t-54.5 0t-49 4
t-52.5 10.5t-41.5 21.5t-37.5 34.5q-23 31 -31 73z" />
    <glyph glyph-name="m" unicode="m" horiz-adv-x="1994" 
d="M102 174v15q0 33 6 65q6 40 19 88t26.5 86t28.5 82.5t22 71.5q24 88 73.5 264.5t74.5 265.5l24 87t24 86q17 60 64 76q18 6 37 6q29 0 59 -15q48 -25 73 -73q12 11 43.5 42.5t49 46t46.5 34.5t58 27t62 5q46 -3 95.5 -28t86.5 -62q31 -31 50.5 -48.5t50 -37.5t58.5 -27
q23 -5 45 -5q19 0 38 4q41 8 107 39.5t81 37.5q62 24 121 24q48 0 95 -16q88 -30 134 -118q16 -30 24 -66q10 -36 14 -64q2 -15 2 -35q0 -18 -2 -38q-4 -46 -6 -68t-14.5 -74t-16 -65.5t-20 -70.5t-17.5 -61q-21 -74 -70 -221.5t-70 -221.5q-10 -35 -25 -67.5t-40 -68.5
t-65 -57q-36 -19 -78 -19h-8q-53 2 -77 40q-21 32 -21 84q0 8 1 18q4 63 20.5 137.5t45.5 155.5t55.5 148t49.5 124t28 74q14 52 14 90q0 55 -29 83q-37 32 -76 32h-1q-40 0 -81.5 -33.5t-79.5 -82t-73.5 -113t-64 -128t-49.5 -125.5q-10 -28 -25.5 -83.5t-30.5 -98
t-35 -76.5q-35 -61 -89 -87q-25 -12 -49 -12q-28 0 -55 16q-33 23 -50.5 69.5t-17.5 99.5q0 68 36 192q13 44 48 107.5t67 117t57 109.5q22 49 22 91v12q-4 48 -42 81q-17 15 -39 15q-94 0 -262 -295q-85 -148 -179 -358q-11 -24 -44.5 -111t-63 -138.5t-75.5 -92.5
q-37 -33 -68 -38q-6 -1 -12 -1q-29 0 -55 19q-32 23 -45 58q-13 32 -15 74z" />
    <glyph glyph-name="n" unicode="n" horiz-adv-x="1583" 
d="M63 129q-1 12 -1 25q0 39 8 81q10 55 31 127.5t42 130.5t50 132q73 186 142 336t98 198q49 81 107.5 126.5t119.5 49.5h10q95 0 179 -109q23 -31 40.5 -69t30.5 -93t19 -84q7 -30 17 -102l12 -87l24 67q24 68 39 108q91 247 131 347q1 3 3.5 9t3.5 9q13 34 21.5 54t28 53
t38 50t47 27t60.5 2q67 -16 96 -75q18 -34 20 -86v-17q0 -43 -7 -80q-8 -45 -27.5 -105.5t-32 -92.5t-32.5 -79q-5 -12 -9 -21q-134 -323 -306 -604q-3 -4 -8 -13.5t-8 -14.5q-17 -29 -27 -45t-30 -43t-36.5 -41t-40.5 -26t-49 -12q-28 0 -50 8.5t-37.5 27.5t-26 36
t-18.5 45.5t-11.5 43.5t-8.5 42q-9 50 -21.5 135t-20.5 145l-8 60l-20 139q-85 -204 -105 -250q-80 -177 -178 -389q-2 -5 -13.5 -29.5t-15.5 -33.5t-16.5 -31.5t-20 -33t-21.5 -27t-26.5 -25t-29 -15.5t-33.5 -9q-7 -1 -14 -1q-58 0 -87 47q-19 31 -22 82z" />
    <glyph glyph-name="o" unicode="o" horiz-adv-x="1480" 
d="M104 594q0 7 -1 15q0 86 17 172q24 105 74 203.5t116.5 177t148.5 141t169 95.5q86 33 178 41q18 2 37 2q72 0 141 -26q179 -61 297 -265q94 -163 97 -366v-13q0 -195 -87 -356q-67 -124 -177 -215t-244 -145q-138 -55 -259 -55q-78 0 -149 23q-79 26 -145.5 84
t-111 134.5t-72 167.5t-29.5 185zM389 679q-7 -29 -7 -58q0 -67 38 -135q54 -96 146 -129q51 -16 102 -16q41 1 81 11q90 24 168 89q124 105 160 250q13 47 13 97q0 30 -4 58q-12 80 -53 141q-32 48 -66 75q-35 26 -69 28q-8 1 -16 1q-26 0 -50 -6q-32 -8 -68.5 -32.5
t-65 -46.5t-67 -54t-64.5 -50q-97 -67 -143 -139q-24 -38 -35 -84z" />
    <glyph glyph-name="o" unicode="&#xf6;" horiz-adv-x="1480" 
d="M104 594q0 7 -1 15q0 86 17 172q24 105 74 203.5t116.5 177t148.5 141t169 95.5q86 33 178 41q18 2 37 2q72 0 141 -26q179 -61 297 -265q94 -163 97 -366v-13q0 -195 -87 -356q-67 -124 -177 -215t-244 -145q-138 -55 -259 -55q-78 0 -149 23q-79 26 -145.5 84
t-111 134.5t-72 167.5t-29.5 185zM389 679q-7 -29 -7 -58q0 -67 38 -135q54 -96 146 -129q51 -16 102 -16q41 1 81 11q90 24 168 89q124 105 160 250q13 47 13 97q0 30 -4 58q-12 80 -53 141q-32 48 -66 75q-35 26 -69 28q-8 1 -16 1q-26 0 -50 -6q-32 -8 -68.5 -32.5
t-65 -46.5t-67 -54t-64.5 -50q-97 -67 -143 -139q-24 -38 -35 -84z" />
    <glyph glyph-name="o" unicode="&#xf5;" horiz-adv-x="1480" 
d="M104 594q0 7 -1 15q0 86 17 172q24 105 74 203.5t116.5 177t148.5 141t169 95.5q86 33 178 41q18 2 37 2q72 0 141 -26q179 -61 297 -265q94 -163 97 -366v-13q0 -195 -87 -356q-67 -124 -177 -215t-244 -145q-138 -55 -259 -55q-78 0 -149 23q-79 26 -145.5 84
t-111 134.5t-72 167.5t-29.5 185zM389 679q-7 -29 -7 -58q0 -67 38 -135q54 -96 146 -129q51 -16 102 -16q41 1 81 11q90 24 168 89q124 105 160 250q13 47 13 97q0 30 -4 58q-12 80 -53 141q-32 48 -66 75q-35 26 -69 28q-8 1 -16 1q-26 0 -50 -6q-32 -8 -68.5 -32.5
t-65 -46.5t-67 -54t-64.5 -50q-97 -67 -143 -139q-24 -38 -35 -84z" />
    <glyph glyph-name="o" unicode="&#xf4;" horiz-adv-x="1480" 
d="M104 594q0 7 -1 15q0 86 17 172q24 105 74 203.5t116.5 177t148.5 141t169 95.5q86 33 178 41q18 2 37 2q72 0 141 -26q179 -61 297 -265q94 -163 97 -366v-13q0 -195 -87 -356q-67 -124 -177 -215t-244 -145q-138 -55 -259 -55q-78 0 -149 23q-79 26 -145.5 84
t-111 134.5t-72 167.5t-29.5 185zM389 679q-7 -29 -7 -58q0 -67 38 -135q54 -96 146 -129q51 -16 102 -16q41 1 81 11q90 24 168 89q124 105 160 250q13 47 13 97q0 30 -4 58q-12 80 -53 141q-32 48 -66 75q-35 26 -69 28q-8 1 -16 1q-26 0 -50 -6q-32 -8 -68.5 -32.5
t-65 -46.5t-67 -54t-64.5 -50q-97 -67 -143 -139q-24 -38 -35 -84z" />
    <glyph glyph-name="o" unicode="&#xf3;" horiz-adv-x="1480" 
d="M104 594q0 7 -1 15q0 86 17 172q24 105 74 203.5t116.5 177t148.5 141t169 95.5q86 33 178 41q18 2 37 2q72 0 141 -26q179 -61 297 -265q94 -163 97 -366v-13q0 -195 -87 -356q-67 -124 -177 -215t-244 -145q-138 -55 -259 -55q-78 0 -149 23q-79 26 -145.5 84
t-111 134.5t-72 167.5t-29.5 185zM389 679q-7 -29 -7 -58q0 -67 38 -135q54 -96 146 -129q51 -16 102 -16q41 1 81 11q90 24 168 89q124 105 160 250q13 47 13 97q0 30 -4 58q-12 80 -53 141q-32 48 -66 75q-35 26 -69 28q-8 1 -16 1q-26 0 -50 -6q-32 -8 -68.5 -32.5
t-65 -46.5t-67 -54t-64.5 -50q-97 -67 -143 -139q-24 -38 -35 -84z" />
    <glyph glyph-name="o" unicode="&#xf2;" horiz-adv-x="1480" 
d="M104 594q0 7 -1 15q0 86 17 172q24 105 74 203.5t116.5 177t148.5 141t169 95.5q86 33 178 41q18 2 37 2q72 0 141 -26q179 -61 297 -265q94 -163 97 -366v-13q0 -195 -87 -356q-67 -124 -177 -215t-244 -145q-138 -55 -259 -55q-78 0 -149 23q-79 26 -145.5 84
t-111 134.5t-72 167.5t-29.5 185zM389 679q-7 -29 -7 -58q0 -67 38 -135q54 -96 146 -129q51 -16 102 -16q41 1 81 11q90 24 168 89q124 105 160 250q13 47 13 97q0 30 -4 58q-12 80 -53 141q-32 48 -66 75q-35 26 -69 28q-8 1 -16 1q-26 0 -50 -6q-32 -8 -68.5 -32.5
t-65 -46.5t-67 -54t-64.5 -50q-97 -67 -143 -139q-24 -38 -35 -84z" />
    <glyph glyph-name="p" unicode="p" horiz-adv-x="1521" 
d="M102 133q-1 19 3 44.5t7.5 42.5t13.5 49.5t14 43.5t16 46q15 41 22 65q6 22 18.5 65.5t19.5 65.5q69 237 76 262q12 45 28 114q17 74 28.5 115.5t36 101t56.5 101.5q37 50 100.5 88.5t137 60t153.5 32.5q67 9 129 9h23q72 -2 130 -15q158 -36 245 -175q62 -98 62 -207
q0 -45 -11 -92q-29 -125 -123 -226t-237 -159q-127 -52 -270 -60q-22 -1 -43 -1l-87 5q-24 3 -44 3q-46 0 -74 -17q-30 -18 -51 -76t-26 -112l-2 -21q-4 -41 -7 -62.5t-11.5 -58.5t-21 -59.5t-35 -47t-53.5 -39.5q-38 -19 -82 -19q-33 0 -61 12q-56 25 -74 85q-5 17 -6 36z
M651 808q49 -48 117 -48q38 0 82 15q93 31 172.5 110.5t91.5 153.5q2 11 2 21q0 46 -38 75q-28 20 -76 20q-77 0 -172.5 -46t-160.5 -121q-51 -59 -51 -108q0 -39 33 -72z" />
    <glyph glyph-name="q" unicode="q" horiz-adv-x="1595" 
d="M117 990q43 154 162.5 259.5t284.5 158.5q133 42 269 42q31 0 62 -2q229 -16 393 -142q73 -57 119 -122q57 -81 77 -181q10 -48 10 -95q0 -52 -12 -104q-22 -100 -87 -172q-36 -40 -95.5 -82t-108.5 -71.5t-97.5 -76t-72.5 -98.5q-19 -42 -31.5 -127t-17.5 -105
q-16 -64 -56 -112t-95 -51h-9q-53 0 -94 46q-44 50 -49 115q-1 8 -1 17q0 31 9 65q11 45 23 74.5t36 77.5q-37 -5 -73 -5q-142 0 -277 78q-169 98 -237 267q-48 122 -48 229q0 61 16 117zM404 782q7 -53 50 -113q45 -62 124 -85q35 -10 68 -10q42 0 82 16q-11 27 -11 54
q0 25 9 50q18 55 63 84q16 10 35 16q19 5 37 5q42 0 83 -27q60 -39 68 -102q40 24 66 41.5t57 45t51 57.5q34 50 40 107v18q0 47 -24 89q-27 43 -79 64q-47 18 -97 18h-10q-54 -2 -111 -11q-52 -10 -95.5 -20t-110.5 -30.5t-116 -43t-96.5 -57.5t-68.5 -74q-15 -30 -15 -67
q0 -12 1 -25z" />
    <glyph glyph-name="r" unicode="r" horiz-adv-x="1685" 
d="M103 196q4 76 69 210q28 57 91 216q35 88 54.5 135.5t59 136.5t68 140.5t73.5 125.5t83 115.5t90 85.5t102 60q47 15 103 15h7q60 -1 122 -27q115 -49 183 -173q54 -100 55 -206q0 -26 -4 -53q-17 -134 -111.5 -233t-216.5 -111q16 -56 26 -87t31.5 -74.5t47.5 -72.5
q44 -49 106 -63q17 -4 32 -3q42 0 79 26q23 18 57 72.5t59 72.5q30 19 63 19q4 -1 8 -1q37 -2 71 -26q35 -24 53 -61q21 -47 21 -98q0 -12 -1 -23q-6 -63 -37 -119q-51 -92 -147 -138q-87 -41 -181 -41h-21q-106 5 -201 53q-54 27 -107 68.5t-93 81t-89 100.5t-78 101
t-77 109q-36 -38 -56.5 -88.5t-38.5 -134t-26 -109.5q-28 -95 -97 -157q-46 -41 -92 -41q-24 0 -49 11q-46 20 -70 73q-21 47 -21 100v13zM687 855q-3 -12 4.5 -18.5t26.5 -7.5h8q52 -1 112 33q66 36 114 84q47 47 57 92q2 8 2 13q1 7 1 14q0 47 -31 77q-20 20 -48.5 26
t-54.5 -6q-35 -16 -70 -82q-14 -25 -40.5 -75t-39.5 -75q-5 -8 -16 -25t-16.5 -27.5t-8.5 -22.5z" />
    <glyph glyph-name="s" unicode="s" horiz-adv-x="1439" 
d="M109 332q16 59 62 84q29 16 63 16.5t60.5 -8.5t60 -29t50.5 -33.5t41 -33.5q40 -34 84 -44q14 -3 30 -3q31 0 62 15q25 15 37.5 39t10 55.5t-7.5 60t-21.5 67t-27 60.5t-28.5 56.5t-21 39.5q-44 86 -59 183q-7 48 -7 88q0 39 6 67q12 60 59 144q76 139 213 219.5
t304 83.5h5q104 0 170 -40q1 -1 2.5 -2t2.5 -1q42 -28 64 -76q14 -29 13 -59q0 -19 -6 -38q-14 -45 -44 -70.5t-72 -33.5t-82.5 -8.5t-89.5 -0.5t-78 -5q-67 -11 -113 -49t-52 -100q-1 -8 -1 -16q0 -30 9 -65q11 -45 20 -66t34 -75q5 -11 7 -16q8 -18 21.5 -46t22.5 -46.5
t22 -47t20.5 -48t18 -48.5t14 -49t9 -50.5t3 -51.5t-3.5 -52q-14 -102 -97 -182t-200 -103q-18 -4 -56 -8q-71 -6 -108 -7h-6q-35 0 -93 10q-62 11 -125 39q-139 61 -185 143q-24 43 -24 89q0 26 7 52z" />
    <glyph glyph-name="t" unicode="t" horiz-adv-x="1562" 
d="M103 1351q5 51 33 75q26 22 62 21h6q38 -2 82 -6q26 -3 79.5 -11.5t92.5 -12.5q127 -12 380.5 -36t380.5 -36q120 -12 169 -46q58 -40 71 -109q5 -33 -3 -60q-14 -45 -56 -69.5t-91 -25.5q-22 0 -125 8q-69 5 -106 5q-19 0 -30 -1q-39 -4 -68.5 -25t-46.5 -49
t-30.5 -72.5t-20 -82t-16.5 -93.5t-18 -92q-1 -5 -12.5 -54t-14 -58.5t-13.5 -54t-15.5 -59t-16 -53.5t-19 -57.5t-19.5 -51.5t-23 -54t-25 -46.5t-29 -47.5q-39 -57 -93 -85q-27 -13 -51 -13q-26 0 -49 15q-38 24 -51 76q-9 35 -9 69q0 17 2 35q6 52 24 108q6 21 24 80.5
t27 90t25.5 88.5t25.5 93.5t21.5 86.5t18.5 85t10 72q4 31 3 56v10q-1 28 -7 47q-5 16 -12.5 28.5t-14.5 21t-20 15.5t-21.5 11t-26.5 7.5t-26.5 5t-30 4.5t-30.5 4q-8 1 -38 5t-38 5.5t-30.5 6.5t-34 10.5t-29.5 15.5t-35 23q-40 32 -68 82q-25 44 -25 84q0 5 1 11z" />
    <glyph glyph-name="u" unicode="u" horiz-adv-x="1390" 
d="M117 356q-15 61 -15 128q0 69 16 145q38 193 112.5 381.5t181.5 308.5q44 49 96 55q8 1 16 1q44 0 84 -30q52 -38 52 -121q0 -30 -7 -65q-5 -29 -18 -60t-34.5 -72.5t-27.5 -55.5q-16 -35 -51 -100t-61 -113.5t-49 -114t-26 -115.5q0 -6 -1 -12q-1 -46 21 -92
q24 -52 79 -90q40 -25 80 -25q19 -1 39 5q60 18 114 74t94 122.5t61 128.5q24 72 42.5 172.5t25.5 161t19 181.5q14 130 50 191q53 90 129 90q11 0 22 -2q85 -14 121 -139q2 -8 4 -26q3 -32 3 -63q0 -59 -10 -115q-6 -40 -21.5 -145t-25 -160.5t-30.5 -138t-47 -147.5
q-134 -329 -357 -442q-90 -45 -190 -55q-23 -2 -44 -3q-77 -1 -153 25q-98 32 -170 108q-94 100 -124 224z" />
    <glyph glyph-name="u" unicode="&#xfb;" horiz-adv-x="1390" 
d="M117 356q-15 61 -15 128q0 69 16 145q38 193 112.5 381.5t181.5 308.5q44 49 96 55q8 1 16 1q44 0 84 -30q52 -38 52 -121q0 -30 -7 -65q-5 -29 -18 -60t-34.5 -72.5t-27.5 -55.5q-16 -35 -51 -100t-61 -113.5t-49 -114t-26 -115.5q0 -6 -1 -12q-1 -46 21 -92
q24 -52 79 -90q40 -25 80 -25q19 -1 39 5q60 18 114 74t94 122.5t61 128.5q24 72 42.5 172.5t25.5 161t19 181.5q14 130 50 191q53 90 129 90q11 0 22 -2q85 -14 121 -139q2 -8 4 -26q3 -32 3 -63q0 -59 -10 -115q-6 -40 -21.5 -145t-25 -160.5t-30.5 -138t-47 -147.5
q-134 -329 -357 -442q-90 -45 -190 -55q-23 -2 -44 -3q-77 -1 -153 25q-98 32 -170 108q-94 100 -124 224z" />
    <glyph glyph-name="u" unicode="&#xfa;" horiz-adv-x="1390" 
d="M117 356q-15 61 -15 128q0 69 16 145q38 193 112.5 381.5t181.5 308.5q44 49 96 55q8 1 16 1q44 0 84 -30q52 -38 52 -121q0 -30 -7 -65q-5 -29 -18 -60t-34.5 -72.5t-27.5 -55.5q-16 -35 -51 -100t-61 -113.5t-49 -114t-26 -115.5q0 -6 -1 -12q-1 -46 21 -92
q24 -52 79 -90q40 -25 80 -25q19 -1 39 5q60 18 114 74t94 122.5t61 128.5q24 72 42.5 172.5t25.5 161t19 181.5q14 130 50 191q53 90 129 90q11 0 22 -2q85 -14 121 -139q2 -8 4 -26q3 -32 3 -63q0 -59 -10 -115q-6 -40 -21.5 -145t-25 -160.5t-30.5 -138t-47 -147.5
q-134 -329 -357 -442q-90 -45 -190 -55q-23 -2 -44 -3q-77 -1 -153 25q-98 32 -170 108q-94 100 -124 224z" />
    <glyph glyph-name="u" unicode="&#xf9;" horiz-adv-x="1390" 
d="M117 356q-15 61 -15 128q0 69 16 145q38 193 112.5 381.5t181.5 308.5q44 49 96 55q8 1 16 1q44 0 84 -30q52 -38 52 -121q0 -30 -7 -65q-5 -29 -18 -60t-34.5 -72.5t-27.5 -55.5q-16 -35 -51 -100t-61 -113.5t-49 -114t-26 -115.5q0 -6 -1 -12q-1 -46 21 -92
q24 -52 79 -90q40 -25 80 -25q19 -1 39 5q60 18 114 74t94 122.5t61 128.5q24 72 42.5 172.5t25.5 161t19 181.5q14 130 50 191q53 90 129 90q11 0 22 -2q85 -14 121 -139q2 -8 4 -26q3 -32 3 -63q0 -59 -10 -115q-6 -40 -21.5 -145t-25 -160.5t-30.5 -138t-47 -147.5
q-134 -329 -357 -442q-90 -45 -190 -55q-23 -2 -44 -3q-77 -1 -153 25q-98 32 -170 108q-94 100 -124 224z" />
    <glyph glyph-name="v" unicode="v" horiz-adv-x="1390" 
d="M205 216.5q-1 17.5 0 48t2 44t3 43.5t3 37q13 193 21 642q0 16 -1 65q-1 33 -1 58v24q0 33 6 80.5t18 78t36 57.5t59 35q10 2 20 2q34 -1 61 -31q35 -40 54 -111.5t32.5 -164.5t15.5 -189t6 -183q1 -33 0 -63q0 -47 -2 -85q-1 -19 17 -24.5t28 10.5q250 398 408 639
q11 17 21 30.5t24.5 30.5t27.5 29.5t30 23.5t33.5 15.5t36.5 4t39 -9.5q65 -29 79 -102q4 -18 4 -37q0 -56 -32 -114q-127 -240 -243 -397q-226 -304 -334 -432q-9 -11 -24 -30t-27.5 -35.5t-31 -38.5t-34 -39.5t-36.5 -38t-38.5 -34t-40 -28t-41.5 -19t-42 -8t-42 5.5
q-21 7 -38.5 19.5t-29.5 26t-20.5 35.5t-14 39t-8.5 45t-4 45.5z" />
    <glyph glyph-name="w" unicode="w" horiz-adv-x="2168" 
d="M102 380q2 56 5 99t13 100t17.5 91.5t18.5 83.5q147 628 317 628h6q15 -1 28 -6q29 -11 46.5 -33.5t21 -53.5t1 -62.5t-13 -71t-19.5 -68t-21.5 -63.5t-16.5 -49q-29 -95 -46.5 -160t-31.5 -163q-8 -57 -8 -106q0 -34 4 -64q11 -77 59.5 -129t112.5 -54q3 0 5 -1
q62 0 126 59q56 56 103.5 132t77.5 143t59.5 166t44 158.5t37.5 162.5q35 157 75 222q47 75 112 75q20 0 43 -7q46 -16 70 -61q23 -44 24 -103q0 -59 -8 -109q-7 -46 -20 -96q-10 -40 -47 -130.5t-67 -173.5q-32 -83 -54 -172q-14 -55 -13 -102q0 -29 5 -55q14 -68 70 -97
q25 -11 50 -11q18 0 36 6q44 14 88 57t83 96.5t73 115t57 111.5t35 85q30 89 58.5 265t53.5 255q18 59 50 96q32 36 68 44q13 3 26 3q22 0 44 -8q34 -13 61.5 -55t37.5 -103q7 -31 7 -70q0 -19 -2 -39q-6 -62 -15.5 -114t-29.5 -115t-38 -111.5t-40 -104.5l-4.5 -10.5
t-3.5 -9t-4 -10.5q-121 -308 -280 -475q-77 -81 -169 -131q-94 -50 -188 -65q-30 -5 -58 -5q-66 0 -130 23q-94 33 -165 115q-21 23 -52.5 25.5t-54.5 -18.5q-73 -67 -181 -109t-216 -43h-4q-105 0 -188 50q-39 25 -67 61t-43 80.5t-23 88.5q-7 37 -8 83v17z" />
    <glyph glyph-name="x" unicode="x" horiz-adv-x="1650" 
d="M104.5 189q7.5 32 19 56.5t32 49t35 38.5t28.5 25q52 38 105.5 81t119.5 101.5t109.5 113t48.5 89.5q3 25 -2 50.5t-19.5 55t-27 50t-37 58t-35.5 55.5q-83 134 -105 207q-6 19 -6 46.5t7 59.5t31.5 60t63.5 41q27 11 51.5 8t44 -10t37.5 -25t31.5 -36.5t26.5 -44.5
t23 -50t20 -52t17.5 -50.5t15.5 -45.5t15 -38q1 -2 9.5 -21.5t12.5 -28.5t13.5 -27.5t17.5 -28.5t18.5 -22t22 -18t23.5 -7q20 -1 50 24t51.5 53t52 70.5t38.5 52.5q3 4 20.5 26.5t22.5 29t22 27.5t25 30t24.5 28t26.5 28.5t26 25t28.5 25t27.5 20.5t30 19q40 25 85 25
q12 0 23 -2q58 -8 98 -58q7 -8 11 -17q15 -28 15 -58q0 -37 -22 -77q-21 -40 -79 -91l-316 -288q-93 -83 -93 -145q0 -41 49 -112l133 -197q70 -104 84 -172q4 -20 4 -39q0 -29 -8 -57q-14 -48 -54 -76q-34 -24 -79 -24t-89.5 24t-73.5 64q-32 44 -67 143q-13 38 -37 94
q-22 48 -58 84.5t-80 36.5q-16 0 -32.5 -5t-28.5 -11t-30 -19.5t-25.5 -20t-26.5 -24t-23 -20.5q-37 -34 -96 -110.5t-66 -84.5q-26 -31 -42 -48.5t-47 -41t-58 -28.5q-15 -3 -31 -3q-39 0 -78 18q-54 26 -70 80q-11 29 -3.5 61z" />
    <glyph glyph-name="y" unicode="y" horiz-adv-x="1347" 
d="M144 1295q6 53 34.5 89t71.5 46q19 5 38 5q67 0 128 -62q81 -81 191 -355q18 -47 37 -89q20 -46 37 -46q16 0 51 64.5t56 116.5q2 5 17 41q12 27 24 57q21 51 34.5 79.5t43.5 67.5t67 61q46 28 96 32h13q42 0 78 -18q44 -22 65 -62q14 -30 14 -63q0 -13 -2 -26
q-19 -110 -163 -289q-48 -61 -63 -81q-165 -230 -371 -577q-39 -65 -60 -98t-63.5 -79.5t-87.5 -73.5q-58 -35 -121 -35q-32 0 -58 10q-79 29 -92 114q-4 28 2.5 56t15.5 47.5t31 46.5t34.5 40.5t40.5 41.5q45 45 64 68q50 60 63 144q4 28 4 54q0 55 -18 105q-19 58 -98 180
q-64 99 -113 208q-42 94 -42 159q0 11 1 21z" />
    <glyph glyph-name="y" unicode="&#xfd;" horiz-adv-x="1347" 
d="M144 1295q6 53 34.5 89t71.5 46q19 5 38 5q67 0 128 -62q81 -81 191 -355q18 -47 37 -89q20 -46 37 -46q16 0 51 64.5t56 116.5q2 5 17 41q12 27 24 57q21 51 34.5 79.5t43.5 67.5t67 61q46 28 96 32h13q42 0 78 -18q44 -22 65 -62q14 -30 14 -63q0 -13 -2 -26
q-19 -110 -163 -289q-48 -61 -63 -81q-165 -230 -371 -577q-39 -65 -60 -98t-63.5 -79.5t-87.5 -73.5q-58 -35 -121 -35q-32 0 -58 10q-79 29 -92 114q-4 28 2.5 56t15.5 47.5t31 46.5t34.5 40.5t40.5 41.5q45 45 64 68q50 60 63 144q4 28 4 54q0 55 -18 105q-19 58 -98 180
q-64 99 -113 208q-42 94 -42 159q0 11 1 21z" />
    <glyph glyph-name="z" unicode="z" horiz-adv-x="1437" 
d="M103.5 152.5q-1.5 32.5 7.5 57.5t33.5 56.5t43.5 50.5t51 48.5t44 41.5l335 335q84 83 169 166q3 3 23 22t27 26t22 25.5t20.5 31t10 30t1.5 34.5q-3 18 -17 31t-30.5 19.5t-43.5 10t-43.5 4t-44 0.5h-31.5h-67h-44h-36q-32 0 -78.5 6.5t-77 18.5t-57.5 38t-37 63
q-5 19 -5 36q0 44 33 81q32 36 84 44q32 5 72 5q25 0 52 -2q125 -9 403 -28q8 -1 55.5 -3.5t61.5 -4t53 -7.5t60 -13t49.5 -20t51.5 -31q36 -27 52 -63q14 -32 14 -64v-8q-2 -36 -19 -78.5t-40 -80t-57.5 -81.5t-63.5 -77.5t-64 -71.5q-14 -16 -21 -23q-38 -42 -115 -113
t-132 -123q-56 -51 -96 -106q-33 -45 -33 -75q0 -7 2 -12q3 -12 12 -20.5t24 -12.5t28 -6.5t33 -2.5t31 0.5t30 2.5t22 2q116 8 200 7q72 0 122 -5q80 -8 116 -40q30 -28 35 -73q1 -9 1 -18q0 -35 -16 -63q-11 -21 -30 -40q-35 -35 -91 -52t-97 -19q-18 -1 -43 -1
q-31 0 -73 2q-54 2 -82 1h-18q-77 -2 -232.5 -5t-232.5 -5q-20 -2 -42 -2q-18 -1 -38 1q-44 2 -82.5 8t-74.5 27t-58 55q-20 30 -21.5 62.5z" />
    <glyph glyph-name="uni00A0" unicode="&#xa0;" horiz-adv-x="757" 
 />
    <glyph glyph-name="uni00AD" unicode="&#xad;" 
d="M105 731q11 50 67 74q13 6 30.5 9.5t28 4.5t33.5 2.5t29 1.5q45 3 130 7q133 4 266 0q218 -7 312 -16q2 0 26.5 -2t31 -3t28.5 -4t30.5 -6.5t26 -10.5t26.5 -15.5t18.5 -21.5t15.5 -28q12 -30 4 -59q-16 -61 -113 -81q-51 -10 -155 -10q-104 -1 -322.5 5t-258.5 7
q-114 3 -125 4q-63 7 -99 44q-43 47 -30 98z" />
    <glyph glyph-name="uni2000" unicode="&#x2000;" horiz-adv-x="776" 
 />
    <glyph glyph-name="uni2001" unicode="&#x2001;" horiz-adv-x="1552" 
 />
    <glyph glyph-name="uni2002" unicode="&#x2002;" horiz-adv-x="776" 
 />
    <glyph glyph-name="uni2003" unicode="&#x2003;" horiz-adv-x="1552" 
 />
    <glyph glyph-name="uni2004" unicode="&#x2004;" horiz-adv-x="517" 
 />
    <glyph glyph-name="uni2005" unicode="&#x2005;" horiz-adv-x="388" 
 />
    <glyph glyph-name="uni2006" unicode="&#x2006;" horiz-adv-x="258" 
 />
    <glyph glyph-name="uni2007" unicode="&#x2007;" horiz-adv-x="258" 
 />
    <glyph glyph-name="uni2008" unicode="&#x2008;" horiz-adv-x="194" 
 />
    <glyph glyph-name="uni2009" unicode="&#x2009;" horiz-adv-x="310" 
 />
    <glyph glyph-name="uni200A" unicode="&#x200a;" horiz-adv-x="86" 
 />
    <glyph glyph-name="uni2010" unicode="&#x2010;" 
d="M105 731q11 50 67 74q13 6 30.5 9.5t28 4.5t33.5 2.5t29 1.5q45 3 130 7q133 4 266 0q218 -7 312 -16q2 0 26.5 -2t31 -3t28.5 -4t30.5 -6.5t26 -10.5t26.5 -15.5t18.5 -21.5t15.5 -28q12 -30 4 -59q-16 -61 -113 -81q-51 -10 -155 -10q-104 -1 -322.5 5t-258.5 7
q-114 3 -125 4q-63 7 -99 44q-43 47 -30 98z" />
    <glyph glyph-name="uni2011" unicode="&#x2011;" 
d="M105 731q11 50 67 74q13 6 30.5 9.5t28 4.5t33.5 2.5t29 1.5q45 3 130 7q133 4 266 0q218 -7 312 -16q2 0 26.5 -2t31 -3t28.5 -4t30.5 -6.5t26 -10.5t26.5 -15.5t18.5 -21.5t15.5 -28q12 -30 4 -59q-16 -61 -113 -81q-51 -10 -155 -10q-104 -1 -322.5 5t-258.5 7
q-114 3 -125 4q-63 7 -99 44q-43 47 -30 98z" />
    <glyph glyph-name="figuredash" unicode="&#x2012;" 
d="M105 731q11 50 67 74q13 6 30.5 9.5t28 4.5t33.5 2.5t29 1.5q45 3 130 7q133 4 266 0q218 -7 312 -16q2 0 26.5 -2t31 -3t28.5 -4t30.5 -6.5t26 -10.5t26.5 -15.5t18.5 -21.5t15.5 -28q12 -30 4 -59q-16 -61 -113 -81q-51 -10 -155 -10q-104 -1 -322.5 5t-258.5 7
q-114 3 -125 4q-63 7 -99 44q-43 47 -30 98z" />
    <glyph glyph-name="endash" unicode="&#x2013;" horiz-adv-x="1225" 
d="M104 731q10 50 62 74q12 6 28 9.5t25.5 4.5t31 2.5t26.5 1.5q42 3 120 7q123 4 246 0q201 -7 288 -16q2 0 24.5 -2t28.5 -3t26.5 -4t28 -6.5t24 -10.5t24.5 -15.5t17 -21.5t14 -28q11 -30 4 -59q-15 -61 -104 -81q-47 -10 -143 -10q-96 -1 -298 5t-239 7q-105 3 -115 4
q-58 7 -92 44q-39 47 -27 98z" />
    <glyph glyph-name="emdash" unicode="&#x2014;" horiz-adv-x="2249" 
d="M107 731q20 50 123 74q24 6 56.5 9.5t52 4.5t62 2.5t53.5 1.5q83 3 240 7q245 4 491 0q402 -7 576 -16q4 0 49 -2t57 -3t52.5 -4t56.5 -6.5l48 -10.5t49 -15.5t34.5 -21.5t28.5 -28q22 -30 7 -59q-29 -61 -209 -81q-94 -10 -286 -10q-192 -1 -595.5 5t-476.5 7
q-211 3 -231 4q-117 7 -183 44q-79 47 -55 98z" />
    <glyph glyph-name="uni202F" unicode="&#x202f;" horiz-adv-x="310" 
 />
    <glyph glyph-name="uni205F" unicode="&#x205f;" horiz-adv-x="388" 
 />
    <glyph glyph-name="uni25FC" unicode="&#x25fc;" horiz-adv-x="1433" 
d="M0 0v1434h1434v-1434h-1434z" />
    </font>
</defs>
</svg>
